<?xml version="1.0" standalone="no"?>
<!DOCTYPE svg PUBLIC "-//W3C//DTD SVG 1.1//EN" "http://www.w3.org/Graphics/SVG/1.1/DTD/svg11.dtd" >
<svg xmlns="http://www.w3.org/2000/svg">
<metadata></metadata>
<defs>
<font id="vinegarregular" horiz-adv-x="1189" >
<font-face units-per-em="2048" ascent="1536" descent="-512" />
<missing-glyph horiz-adv-x="700" />
<glyph unicode="&#xfb01;" horiz-adv-x="1329" d="M18 852v51l177 12v115q0 134 56.5 244t151 171.5t205.5 61.5q35 0 64.5 -6.5t46.5 -15.5t28.5 -18.5t16.5 -16.5l4 -6v-232h-70l-45 164q-1 3 -3 7.5t-11 16.5t-20 21.5t-31.5 17t-44.5 7.5q-27 0 -47 -3.5t-34 -13.5t-23.5 -20.5t-14.5 -32t-7 -40.5t-2.5 -53.5t0.5 -63 t2 -76.5t1 -88v-133h342l272 -7l113 7v-852l137 -13v-57l-250 6l-250 -6v57l140 13v782h-504v-782l209 -13v-57l-322 6l-272 -6v57l162 13v782h-177zM897 1337q0 -55 39.5 -94t95.5 -39q57 0 97 39t40 94q0 57 -40 97.5t-97 40.5q-56 0 -95.5 -40.5t-39.5 -97.5z" />
<glyph unicode="&#xfb02;" horiz-adv-x="1325" d="M18 852v51l177 12v115q0 134 56.5 244t151 171.5t205.5 61.5q72 0 115 -24l299 -4l113 4v-1413l163 -13v-57l-276 6l-248 -6v57l137 13v782h-493v-782l209 -13v-57l-322 6l-272 -6v57l162 13v782h-177zM414.5 1282.5q-0.5 -34.5 0.5 -63t2 -76.5t1 -88v-133h493v493 l-143 8v-211h-70l-45 164q-1 3 -3 7.5t-11 16.5t-20 21.5t-31.5 17t-44.5 7.5q-27 0 -47 -3.5t-34 -13.5t-23.5 -20.5t-14.5 -32t-7 -40.5t-2.5 -53.5z" />
<glyph horiz-adv-x="0" />
<glyph horiz-adv-x="682" />
<glyph unicode=" "  horiz-adv-x="700" />
<glyph unicode="&#x09;" horiz-adv-x="700" />
<glyph unicode="&#xa0;" horiz-adv-x="700" />
<glyph unicode="!" horiz-adv-x="788" d="M248 119q0 -61 43.5 -104.5t103.5 -43.5q61 0 104.5 43.5t43.5 104.5q0 60 -43.5 102.5t-104.5 42.5q-60 0 -103.5 -42.5t-43.5 -102.5zM285 1511h221l-70 -1044h-82z" />
<glyph unicode="&#x22;" horiz-adv-x="739" d="M147 1511h168l-32 -436h-103zM424 1511h168l-33 -436h-102z" />
<glyph unicode="#" d="M113 479v70h209l71 414h-280v69h293l90 508h69l-90 -508h354l91 508h69l-90 -508h178v-69h-188l-74 -414h262v-70h-274l-90 -508h-70l88 508h-352l-90 -508h-70l88 508h-194zM391 549h354l72 414h-352z" />
<glyph unicode="$" d="M125 135v352h70l47 -284q1 -5 4.5 -13t19.5 -29.5t38 -39.5t63.5 -37.5t93.5 -28.5v635q-58 24 -101 47t-88 57.5t-73 74.5t-46 97t-18 126q0 154 91.5 262.5t244.5 142.5v109h53v-99q46 4 74 4q22 0 72 -4v99h51v-105q53 -11 100.5 -32t77 -43t51.5 -42t32 -32l9 -13 v-282h-67l-47 211q-1 5 -3 13.5t-13 32.5t-26.5 45t-45.5 45t-68 38v-572q60 -23 105.5 -46.5t92.5 -60t77.5 -79.5t49.5 -105t19 -137q0 -171 -95 -282.5t-261 -145.5v-211h-54v203q-47 -6 -94 -6h-49v-197h-51v203q-98 11 -182 43.5t-119 58.5zM260 1200q0 -91 54.5 -147 t156.5 -97v488q-94 -30 -152.5 -96t-58.5 -148zM512 49q14 -2 49 -2q55 0 94 8v563q-24 9 -73 27.5t-70 26.5v-623zM524 936q45 -15 146 -47v565q-46 8 -74 8q-38 0 -72 -6v-520zM709 70q103 34 162 106t59 164q0 94 -57 152.5t-164 105.5v-528z" />
<glyph unicode="%" horiz-adv-x="1562" d="M74 1139q0 153 91.5 260.5t221.5 107.5t221.5 -107.5t91.5 -260.5q0 -151 -91.5 -259t-221.5 -108t-221.5 108t-91.5 259zM209 -25l1071 1532h84l-1073 -1532h-82zM231 1135q0 -72 7 -127t24 -102t48.5 -72t76.5 -25t76.5 25t48.5 72t24 102t7 127q0 73 -7 129t-24 103 t-48.5 72t-76.5 25t-76.5 -25t-48.5 -72t-24 -103t-7 -129zM862 342q0 152 92.5 260.5t221.5 108.5q130 0 221.5 -108t91.5 -261q0 -151 -91.5 -259t-221.5 -108q-129 0 -221.5 108t-92.5 259zM1022 340q0 -99 11.5 -167t47 -114.5t95.5 -46.5q45 0 76.5 25t48 72.5 t23.5 102.5t7 128t-7 128t-23.5 102.5t-48 72.5t-76.5 25q-60 0 -95.5 -46.5t-47 -114.5t-11.5 -167z" />
<glyph unicode="&#x26;" horiz-adv-x="1765" d="M74 399q0 79 26 145.5t64.5 111.5t102.5 86t120.5 66t136.5 54q-71 194 -71 352q0 153 125 239.5t327 86.5q93 0 166 -24t116 -64.5t65 -90t22 -104.5q0 -59 -23.5 -106.5t-59.5 -79.5t-94 -60.5t-110.5 -47t-125.5 -41.5q-24 -7 -36 -11q71 -172 172.5 -337t208.5 -277 q55 74 96 165.5t61.5 174t28.5 126.5t11 75l-260 16v57l274 -6l297 6v-57l-215 -16q-8 -43 -20 -91.5t-40 -135.5t-78 -181t-114 -172q134 -121 236 -121q50 0 99.5 17.5t73.5 35.5l25 17l33 -21q-4 -9 -12.5 -23.5t-38.5 -51.5t-65 -65.5t-93.5 -51.5t-122.5 -23 q-135 0 -303 129q-187 -129 -442 -129q-252 0 -407.5 116.5t-155.5 311.5zM369 489q0 -187 108.5 -305t288.5 -118q148 0 270 71q-140 123 -265.5 303.5t-201.5 368.5q-200 -106 -200 -320zM711 1280q0 -134 71 -322q128 55 198.5 130.5t70.5 191.5q0 84 -42.5 142.5 t-123.5 58.5q-79 0 -126.5 -52.5t-47.5 -148.5z" />
<glyph unicode="'" horiz-adv-x="352" d="M92 1511h168l-33 -436h-102z" />
<glyph unicode="(" horiz-adv-x="669" d="M63 569q0 171 31.5 316.5t82.5 242t112 174t122 120.5t112 71t83 37l31 10v-41q-5 -1 -13 -4t-32.5 -17t-48.5 -33.5t-56.5 -57.5t-60.5 -85t-56.5 -119.5t-48.5 -158t-32.5 -203.5t-12.5 -252t12.5 -252t33 -203.5t48 -157.5t57 -119.5t59.5 -84.5t57.5 -57.5t48 -33.5 t32.5 -17l13 -4v-41q-7 2 -20 5.5t-52 20.5t-77 39.5t-90 64t-96 91.5t-89.5 126t-77.5 163.5t-52 206.5t-20 253z" />
<glyph unicode=")" horiz-adv-x="669" d="M31 -360q8 2 21 7t50.5 31t71.5 63.5t76 110.5t72 165.5t50.5 236.5t20.5 315q0 134 -12.5 252t-33.5 203.5t-48 157.5t-57 120t-60 85t-57 57.5t-48 33.5t-33 17l-13 4v41q12 -3 32.5 -9.5t80 -37t114 -72t120.5 -120t113.5 -174t80 -241.5t32.5 -317t-31.5 -316.5 t-82 -242t-112 -173.5t-122.5 -120t-111.5 -71.5t-82.5 -37.5l-31 -9v41z" />
<glyph unicode="*" horiz-adv-x="776" d="M74 1075l225 109l-225 108l63 109l207 -141l-20 251h127l-19 -251l207 141l63 -109l-227 -108l227 -109l-63 -110l-207 141l19 -250h-127l18 250l-205 -141z" />
<glyph unicode="+" d="M98 702v70h463v463h70v-463h463v-70h-463v-462h-70v462h-463z" />
<glyph unicode="," horiz-adv-x="700" d="M203 117q0 60 48 103.5t114 43.5q79 0 125.5 -50.5t46.5 -139.5q0 -81 -32.5 -155t-78.5 -122t-92 -84t-78 -53l-33 -16l-16 45q9 6 23.5 16.5t51.5 42.5t65.5 63t51.5 73.5t23 78.5q0 11 -3 15t-11 3.5t-17 -3t-26 -5t-33 -2.5q-62 0 -95.5 41t-33.5 105z" />
<glyph unicode="-" horiz-adv-x="788" d="M182 424v184h424v-184h-424z" />
<glyph unicode="." horiz-adv-x="700" d="M203 119q0 60 43 102.5t104 42.5t103.5 -42.5t42.5 -102.5q0 -62 -42.5 -105t-103.5 -43t-104 43t-43 105z" />
<glyph unicode="/" horiz-adv-x="606" d="M82 -29l424 1569h74l-424 -1569h-74z" />
<glyph unicode="0" d="M74 741q0 208 69 384t189.5 279t263.5 103q142 0 262 -103t189 -279t69 -384t-69 -384t-189 -279t-262 -103q-143 0 -263.5 103t-189.5 279t-69 384zM338 735q0 -156 11 -273.5t38.5 -218t80 -153.5t128.5 -53t128 53t79.5 153.5t39 218.5t11.5 273q0 156 -11.5 274.5 t-39 219t-79.5 154t-128 53.5t-128.5 -53t-80 -154t-38.5 -219t-11 -275z" />
<glyph unicode="1" d="M211 1114l250 191l164 178h112v-1413l254 -13v-57l-366 6l-392 -6v57l281 13v1192l-266 -195z" />
<glyph unicode="2" d="M86 2v68q43 55 190 238t197 247q112 146 171.5 250t78 172.5t18.5 148.5q0 145 -67.5 226.5t-194.5 81.5q-46 0 -86.5 -11t-64.5 -26t-41 -30.5t-24 -26.5l-7 -11l-47 -258h-70v295q4 6 13 15.5t42 33.5t72.5 43t106.5 34t143 15q243 0 365.5 -101t122.5 -294 q0 -36 -5.5 -71t-13.5 -65t-25.5 -65.5t-31 -61.5t-41 -63.5t-45.5 -61t-55 -66t-58 -66t-66 -73t-69 -75.5q-114 -126 -303 -315h639l65 266h56v-395l-467 6z" />
<glyph unicode="3" d="M102 115v291h70l45 -259q3 -4 8.5 -11t27 -24.5t46.5 -31t67.5 -24.5t90.5 -11q165 0 248 93.5t83 260.5q0 355 -292 355h-170v69h182q237 0 237 307q0 143 -67.5 224.5t-198.5 81.5q-44 0 -80 -9t-56 -22t-33.5 -26t-17.5 -22l-5 -9l-37 -222h-68v258q4 5 13 13.5 t41.5 29.5t70.5 37t103 29.5t137 13.5q218 0 339.5 -100.5t121.5 -259.5q0 -151 -88.5 -238.5t-239.5 -113.5q173 -27 273 -118.5t100 -262.5q0 -89 -35 -168t-100.5 -139.5t-168 -96t-227.5 -35.5q-83 0 -156.5 14.5t-119.5 35t-80.5 41t-49.5 34.5z" />
<glyph unicode="4" d="M18 371v71l717 1041h111v-1041h209l12 133h55l-6 -167l6 -179h-55l-12 142h-209v-303l209 -11v-57l-322 6l-342 -6v57l232 11v303h-605zM102 442h521v752z" />
<glyph unicode="5" d="M117 115v291h67l45 -259q3 -4 9.5 -11t29.5 -24.5t51 -31t74.5 -24.5t98.5 -11q86 0 149 32t99.5 89.5t53.5 129t17 159.5q0 173 -84.5 290t-220.5 117q-64 0 -117 -21.5t-81.5 -48t-50.5 -63.5t-28 -53.5t-10 -32.5v-2h-69l61 842h72l325 -4l389 4v-129h-725l-43 -553 q120 143 357 143q151 0 263.5 -65.5t169 -174t56.5 -243.5q0 -117 -44 -211t-120 -153.5t-176 -90.5t-215 -31q-77 0 -147 14.5t-114.5 35t-78.5 41t-48 34.5z" />
<glyph unicode="6" d="M63 692q0 173 50.5 325.5t135.5 259.5t202 168.5t247 61.5q65 0 121.5 -12.5t90 -30.5t57.5 -36.5t33 -31.5l10 -12v-258h-68l-37 222q-2 4 -6.5 9.5t-21.5 21t-37.5 27t-55.5 21t-75 9.5q-101 0 -176 -55.5t-119.5 -157.5t-66 -235t-21.5 -298q49 118 141 186t219 68 q199 0 310.5 -129t111.5 -334q0 -212 -144.5 -359t-359.5 -147q-263 0 -402 189.5t-139 527.5zM328 432q0 -112 27 -198.5t89.5 -141.5t153.5 -55q65 0 113.5 32t76.5 90t41 130.5t13 161.5q0 378 -244 378q-122 0 -196 -112.5t-74 -284.5z" />
<glyph unicode="7" d="M147 1087v396l474 -4l491 4v-70l-551 -1413h-239l616 1354h-672l-63 -267h-56z" />
<glyph unicode="8" d="M63 354q0 60 21.5 115t54 94.5t77.5 74t83.5 56t81.5 39.5q-74 42 -124.5 88t-85 120t-34.5 167q0 68 28.5 136t83.5 128t149.5 97.5t213.5 37.5q116 0 205 -29.5t140 -79.5t76.5 -108.5t25.5 -122.5q0 -67 -25.5 -123t-68.5 -93t-85 -60t-89 -39q70 -33 121.5 -68 t99 -86.5t72 -123.5t24.5 -162q0 -80 -35.5 -157.5t-100 -140t-166 -101t-222.5 -38.5q-244 0 -382.5 105.5t-138.5 273.5zM283 354q0 -147 94 -232t231 -85q136 0 226 70.5t90 207.5q0 46 -13.5 85t-42.5 70.5t-59.5 55.5t-79 48t-86 40.5t-96.5 41t-94 40.5 q-170 -117 -170 -342zM309 1206q0 -35 10 -66t24.5 -54.5t42.5 -46t51 -37.5t64.5 -33.5t68 -29t76 -29t75.5 -29.5q149 111 149 276q0 129 -72.5 204t-219.5 75q-49 0 -95 -13.5t-86 -39.5t-64 -72t-24 -105z" />
<glyph unicode="9" d="M63 1018q0 99 38.5 189t105 156t160.5 105t200 39q263 0 402 -190.5t139 -530.5q0 -230 -82.5 -416.5t-225 -290.5t-315.5 -104q-62 0 -118 12t-90.5 29.5t-60.5 34.5t-37 29l-11 12v289h68l45 -234l5.5 -11t19 -24.5t36.5 -31t59 -24.5t84 -11q94 0 164.5 55.5 t113 157.5t63 235.5t20.5 299.5q-48 -105 -140.5 -164.5t-220.5 -59.5q-199 0 -310.5 124.5t-111.5 324.5zM328 1049q0 -365 245 -365q124 0 196.5 102.5t72.5 262.5q0 111 -26.5 198t-89 143t-153.5 56q-65 0 -113 -31t-76.5 -86.5t-42 -125.5t-13.5 -154z" />
<glyph unicode=":" horiz-adv-x="733" d="M211 119q0 60 43.5 102.5t103.5 42.5q61 0 104.5 -42.5t43.5 -102.5q0 -61 -43 -104.5t-105 -43.5q-60 0 -103.5 43.5t-43.5 104.5zM211 801q0 60 43.5 102.5t103.5 42.5q61 0 104.5 -42.5t43.5 -102.5q0 -61 -43 -104.5t-105 -43.5q-60 0 -103.5 43.5t-43.5 104.5z" />
<glyph unicode=";" horiz-adv-x="733" d="M211 117q0 60 48.5 103.5t115.5 43.5q78 0 124 -50.5t46 -139.5q0 -81 -32.5 -155t-78.5 -122t-92 -84t-78 -53l-33 -16l-16 45q9 6 23.5 16.5t52 42.5t66 63t52 73.5t23.5 78.5q0 11 -3 15t-11 3.5t-17 -3t-26.5 -5t-34.5 -2.5q-62 0 -95.5 41t-33.5 105zM211 801 q0 60 43.5 102.5t103.5 42.5q61 0 104.5 -42.5t43.5 -102.5q0 -61 -43 -104.5t-105 -43.5q-60 0 -103.5 43.5t-43.5 104.5z" />
<glyph unicode="&#x3c;" d="M117 698v76l956 348v-75l-854 -310l854 -309v-76z" />
<glyph unicode="=" d="M98 555v70h996v-70h-996zM98 850v70h996v-70h-996z" />
<glyph unicode="&#x3e;" d="M119 352v76l852 309l-852 310v75l956 -348v-76z" />
<glyph unicode="?" horiz-adv-x="907" d="M98 1149v258q4 5 11.5 14t36 32t62.5 40.5t90.5 32t119.5 14.5q197 0 303 -90.5t106 -241.5q0 -68 -20.5 -126.5t-54 -101.5t-73.5 -84t-80 -84t-73.5 -90t-54 -112.5t-20.5 -142.5h-84q0 124 20 221t48.5 158.5t57 117t48.5 127t20 158.5q0 46 -9.5 85.5t-30.5 73.5 t-59 53.5t-89 19.5q-42 0 -75 -11.5t-50 -27.5t-28 -32.5t-14 -27.5l-3 -12l-37 -221h-68zM264 119q0 -62 42.5 -105t103.5 -43q60 0 103.5 43.5t43.5 104.5q0 60 -43.5 102.5t-103.5 42.5q-61 0 -103.5 -42.5t-42.5 -102.5z" />
<glyph unicode="@" horiz-adv-x="1970" d="M72 541q18 193 97 364t206.5 299.5t308.5 203.5t391 75q207 0 373 -64.5t270 -175t154 -257.5t35 -312q-11 -123 -49 -225t-93 -170t-124.5 -114.5t-141 -67.5t-145.5 -21q-63 0 -109.5 16t-67.5 38t-33.5 44.5t-13.5 38.5l-2 16q-41 -68 -125 -110.5t-190 -42.5 q-155 0 -229 69.5t-62 186.5q6 72 53 128t114 88.5t154 53.5t162.5 28t149.5 7l12 127q7 91 -42 136.5t-144 45.5q-34 0 -65 -6.5t-50 -15t-33 -17.5t-20 -15l-6 -7l-59 -158h-74l18 199l15 9t42.5 21t68.5 26t91.5 20.5t112.5 9.5q71 0 124.5 -8t102 -30.5t78 -59.5t43 -98 t6.5 -144l-39 -439q-3 -51 14.5 -76.5t71.5 -25.5q128 0 209.5 138.5t106.5 404.5q11 123 -2.5 225.5t-45 177.5t-82 133t-110 95t-132.5 61t-145.5 33.5t-152.5 9.5q-117 0 -221 -23t-210 -83.5t-185.5 -155.5t-137 -250t-75.5 -356q-12 -145 1.5 -266t48 -209.5t89 -157.5 t119 -113.5t143 -73t157 -40t165.5 -11.5q105 0 203 19.5t162.5 47.5t114 55.5t72.5 47.5l23 19l25 -33q-7 -9 -22 -24.5t-69.5 -54.5t-118.5 -69t-171 -54.5t-226 -24.5q-220 0 -397.5 75t-288 203.5t-163 299.5t-35.5 364zM764 342q-8 -85 32.5 -135.5t129.5 -50.5 q88 0 141 63.5t66 167.5l18 193q-68 -1 -130.5 -13.5t-120 -39t-94.5 -74t-42 -111.5z" />
<glyph unicode="A" horiz-adv-x="1466" d="M-55 0v55l166 13l507 1443h201l516 -1443l160 -11v-57l-321 6l-320 -6v57l184 13l-153 432h-527l-153 -434l264 -13v-55l-322 6zM385 580h471l-238 663z" />
<glyph unicode="B" horiz-adv-x="1517" d="M84 0v57l182 13v1372l-182 12v57l322 -6l413 6q253 0 402 -101t149 -273q0 -82 -36 -145t-99.5 -102.5t-136.5 -62.5t-162 -34q78 -5 146.5 -19.5t134.5 -43.5t113 -71t75.5 -106t28.5 -143q0 -189 -148 -299.5t-403 -110.5l-477 6zM543 57h221q179 0 264.5 82.5 t85.5 270.5q0 68 -12.5 122.5t-32 91t-51 63t-62.5 41.5t-73.5 23t-76.5 10.5t-79 2.5h-184v-707zM543 819h121q45 0 78.5 2t76 9.5t73 20.5t62 37t51 57t32 82t12.5 110q0 169 -86 243t-265 74h-155v-635z" />
<glyph unicode="C" horiz-adv-x="1404" d="M74 756q0 162 56 305.5t156 249.5t246.5 167.5t317.5 61.5q126 0 240 -22.5t166 -45.5l51 -22v-375h-68l-51 238q-2 7 -7.5 18t-30 40t-57 51.5t-93 40.5t-134.5 18q-120 0 -212 -56.5t-147.5 -156.5t-83.5 -229t-28 -283q0 -131 16 -237.5t52.5 -196t92.5 -150 t139.5 -94t191.5 -33.5q71 0 133.5 18.5t106.5 48.5t81 66t60 72t38.5 66t21.5 48l7 19h51q-2 -9 -6.5 -23.5t-23.5 -57.5t-44.5 -82t-71.5 -86.5t-101.5 -81.5t-138.5 -57.5t-179 -23.5q-219 0 -391 106t-264 284t-92 395z" />
<glyph unicode="D" horiz-adv-x="1607" d="M84 0v57l182 13v1372l-182 12v57l322 -6l464 6q316 0 493 -198t177 -557q0 -140 -40.5 -262.5t-109.5 -211.5t-160.5 -153.5t-195.5 -96.5t-211 -32l-417 6zM543 57h213q52 0 98 8.5t94 30.5t87.5 56.5t74.5 89.5t59 126.5t38 170t14 217.5q0 184 -32.5 321.5t-91 218 t-132.5 119.5t-164 39h-258v-1397z" />
<glyph unicode="E" horiz-adv-x="1415" d="M78 0v57l180 13v1372l-180 12v57l319 -6l838 6l41 -383h-49l-156 326h-534v-645h301l65 238h53l-6 -279l6 -279h-53l-65 240h-301v-672h579l158 351h49l-43 -408l-883 6z" />
<glyph unicode="F" horiz-adv-x="1304" d="M84 0v57l182 13v1372l-182 12v57l322 -6l813 6l41 -383h-50l-155 326h-512v-670h327l64 240h53l-4 -279l4 -278h-53l-64 240h-327v-637l205 -13v-57l-342 6z" />
<glyph unicode="G" horiz-adv-x="1568" d="M74 756v2q0 162 56 305t156 248.5t246.5 167t317.5 61.5q126 0 240 -22.5t166 -45.5l51 -22v-375h-68l-51 238q-2 7 -7.5 18t-30 40t-57 51.5t-93 40.5t-134.5 18q-120 0 -212 -56t-147.5 -156t-83.5 -228.5t-28 -282.5v-4q0 -130 9.5 -230t37.5 -196.5t74 -159.5 t122.5 -101t180.5 -38q196 0 295 170v395l-205 12v58l342 -7l299 7v-58l-159 -12v-594h-56l-94 143q-163 -172 -428 -172q-217 0 -387 106t-261 284t-91 395z" />
<glyph unicode="H" horiz-adv-x="1738" d="M86 0v57l180 13v1372l-180 12v57l322 -6l319 6v-57l-182 -12v-627h647v627l-180 12v57l319 -6l320 6v-57l-181 -12v-1372l181 -13v-57l-320 6l-319 -6v57l180 13v665h-647v-665l182 -13v-57l-319 6z" />
<glyph unicode="I" horiz-adv-x="788" d="M74 0v57l180 13v1372l-180 12v57l321 -6l320 6v-57l-183 -12v-1372l183 -13v-57l-320 6z" />
<glyph unicode="J" horiz-adv-x="958" d="M37 37v285h67l52 -240q1 -2 3 -5.5t12 -13t24.5 -16.5t42 -12.5t61.5 -5.5q35 0 60.5 3.5t44 13t30.5 20t18.5 31.5t9.5 39.5t3.5 51.5t-0.5 60.5t-2.5 73.5t-1.5 84v1036l-180 12v57l319 -6l322 6v-57l-183 -12v-993q0 -134 -62 -244.5t-165 -172t-223 -61.5 q-76 0 -139 16.5t-88 32.5z" />
<glyph unicode="K" horiz-adv-x="1611" d="M86 0v57l180 13v1372l-180 12v57l322 -6l319 6v-57l-182 -12v-686l643 688l-246 12v55l320 -6l249 6v-55l-204 -12l-453 -486l692 -895l111 -6v-57l-320 6l-344 -6v57l197 13l-528 680l-117 -123v-557l182 -13v-57l-319 6z" />
<glyph unicode="L" horiz-adv-x="1302" d="M86 0v57l180 13v1372l-180 12v57l322 -6l319 6v-57l-182 -12v-1385h534l158 351h47l-41 -408l-835 6z" />
<glyph unicode="M" horiz-adv-x="1943" d="M55 0v55l207 13v1376l-207 12v55l250 -6l291 6l387 -1101l375 1101l182 -6l320 6v-57l-181 -12v-1372l181 -13v-57l-320 6l-319 -6v57l180 13v1294l-467 -1364h-103l-483 1376v-1308l232 -13v-55l-275 6z" />
<glyph unicode="N" horiz-adv-x="1619" d="M27 0v55l229 13v1376l-229 12v55l274 -6l236 6l770 -1101v1034l-230 12v55l275 -6l250 6v-55l-207 -12v-1444h-142l-909 1325v-1257l231 -13v-55l-274 6z" />
<glyph unicode="O" horiz-adv-x="1628" d="M74 756q0 160 58.5 305t157.5 250t236 167t287 62q151 0 288.5 -62t236.5 -167t157.5 -250t58.5 -305q0 -128 -37.5 -248t-106 -216.5t-159.5 -169t-204 -112t-234 -39.5q-150 0 -287 62t-236 167t-157.5 250.5t-58.5 305.5zM395 756q0 -153 24.5 -282.5t74 -230 t131 -157.5t188.5 -57t189.5 57t132 157.5t74 229.5t24.5 283t-24.5 283t-74 229t-132 156.5t-189.5 56.5t-188.5 -56.5t-131 -156.5t-74 -229t-24.5 -283z" />
<glyph unicode="P" horiz-adv-x="1460" d="M82 0v57l182 13v1372l-182 12v57l321 -6l478 6q261 0 394.5 -97t133.5 -302q0 -108 -45.5 -188t-123.5 -125t-169.5 -66.5t-196.5 -21.5h-331v-641l202 -13v-57l-342 6zM543 768h184q363 0 363 344q0 90 -25.5 157.5t-71.5 107t-103.5 58.5t-127.5 19h-219v-686z" />
<glyph unicode="Q" horiz-adv-x="1628" d="M74 756q0 160 58.5 305t157.5 250t236 167t287 62q151 0 288.5 -62t236.5 -167t157.5 -250t58.5 -305q0 -206 -94 -372t-256 -271q25 -55 42.5 -87.5t43 -68t55 -52t64.5 -16.5q32 0 64.5 15.5t49.5 31.5l17 15l35 -27q-3 -9 -10 -24t-33.5 -53.5t-58 -68t-86 -53.5 t-115.5 -24q-54 0 -96.5 16.5t-69.5 42.5t-48 67t-32.5 79.5t-21.5 91.5q-88 -27 -191 -27q-150 0 -287 62t-236 167t-157.5 250.5t-58.5 305.5zM395 756q0 -203 42.5 -364t127.5 -255q-16 53 -16 111q0 41 17 82t49.5 76t87 57t122.5 22q50 0 94.5 -15t76.5 -38t62 -59 t50.5 -69.5t42.5 -78.5q82 173 82 531q0 154 -24.5 283t-74 229t-132 156.5t-189.5 56.5t-188.5 -56.5t-131 -156.5t-74 -229t-24.5 -283zM612 211q0 -48 20.5 -84t53 -55.5t64 -29t61.5 -11.5h10q106 0 170 37q-5 37 -7.5 51t-8 48t-10 49t-12 43t-15.5 41t-19 33.5t-24 30 t-29.5 20.5t-36.5 15t-43 4q-87 0 -130.5 -55.5t-43.5 -136.5z" />
<glyph unicode="R" horiz-adv-x="1574" d="M86 0v57l180 13v1374l-180 10v57l322 -6l421 6q273 0 413 -91.5t140 -286.5q0 -92 -40 -160t-111 -108t-153.5 -61.5t-182.5 -27.5q84 -8 148 -41t101.5 -81t66 -107t42.5 -119t29.5 -116.5t29 -100.5t38.5 -71t61 -27q26 0 51.5 16.5t37.5 32.5l13 16l43 -18 q-2 -8 -7.5 -20.5t-27 -45t-49.5 -57.5t-78.5 -45.5t-111.5 -20.5q-78 0 -132.5 26.5t-83 71.5t-45.5 103.5t-25.5 123t-17 129.5t-25.5 123.5t-46 103.5t-83.5 71.5t-133.5 26.5h-145v-680l182 -13v-57l-319 6zM545 807h172q344 0 344 326q0 165 -85.5 243t-225.5 78h-205 v-647z" />
<glyph unicode="S" horiz-adv-x="1275" d="M137 156v405h70l49 -276q1 -5 3.5 -14.5t13.5 -36t27 -50.5t46 -53.5t67 -51t94 -36t124 -14.5q170 0 275.5 70t105.5 204q0 71 -29.5 123.5t-79.5 85t-114.5 57t-136 45.5t-143 44.5t-136 59t-114.5 84t-79.5 125.5t-29.5 177q0 92 30.5 170.5t90.5 138t157 93.5t221 34 q76 0 146.5 -9.5t118 -22.5t83.5 -26t53 -22l17 -10v-375h-68l-51 238q-3 7 -9.5 18t-32 40t-58 51.5t-91 40.5t-126.5 18q-146 0 -235 -69.5t-89 -172.5q0 -57 21.5 -102t51 -73.5t84.5 -53.5t97.5 -38.5t113.5 -33.5q68 -19 103.5 -30t97.5 -35t96 -46.5t78.5 -61 t67.5 -83t39.5 -107.5t16.5 -139q0 -204 -142 -334.5t-411 -130.5q-96 0 -181 19t-138 46.5t-92.5 54.5t-55.5 46z" />
<glyph unicode="T" horiz-adv-x="1390" d="M27 1104l43 407l624 -6l627 6l41 -407h-49l-158 350h-319v-1384l204 -13v-57l-346 6l-342 -6v57l205 13v1384h-324l-155 -350h-51z" />
<glyph unicode="U" horiz-adv-x="1624" d="M37 1456v55l321 -6l342 6v-55l-204 -12v-938q0 -237 112 -357t324 -120q133 0 225.5 66t135 175.5t42.5 253.5v920l-229 12v55l272 -6l228 6v-55l-183 -10v-983q0 -107 -35.5 -195.5t-105 -155.5t-181 -104t-255.5 -37q-306 0 -467.5 119.5t-161.5 358.5v997z" />
<glyph unicode="V" horiz-adv-x="1452" d="M-35 1454v57l297 -6l344 6v-57l-211 -14l441 -1155l385 1159l-236 12v55l295 -6l227 6v-55l-194 -14l-477 -1442h-183l-557 1444z" />
<glyph unicode="W" horiz-adv-x="2097" d="M-10 1454v57l297 -6l321 6v-57l-188 -14l311 -1045l258 867l-55 182l-160 10v57l322 -6l319 6v-57l-188 -14l311 -1045l311 1047l-254 14v55l297 -6l252 6v-55l-200 -12l-431 -1444h-145l-332 1108l-329 -1108h-146l-434 1444z" />
<glyph unicode="X" horiz-adv-x="1519" d="M8 1454v57l346 -6l318 6v-57l-189 -14l320 -494l346 498l-264 12v55l321 -6l224 6v-55l-175 -12l-399 -578l520 -800l152 -9v-57l-344 6l-322 -6v57l178 13l-362 559l-387 -561l282 -13v-55l-344 6l-202 -6v55l155 13l443 641l-478 737z" />
<glyph unicode="Y" horiz-adv-x="1454" d="M-29 1454v57l322 -6l342 6v-57l-182 -12l399 -709l381 709l-270 14v55l319 -6l227 6v-55l-174 -12l-434 -807v-567l205 -13v-57l-342 6l-346 -6v57l205 13v503l-490 869z" />
<glyph unicode="Z" horiz-adv-x="1263" d="M37 0v72l864 1382h-610l-154 -326h-51l41 383l743 -6l357 6v-61l-877 -1393h672l156 351h47l-39 -408l-885 6z" />
<glyph unicode="[" horiz-adv-x="669" d="M158 -379v1890h442v-69h-229v-1749h229v-72h-442z" />
<glyph unicode="\" horiz-adv-x="606" d="M27 1540h73l424 -1569h-73z" />
<glyph unicode="]" horiz-adv-x="669" d="M68 -307h231v1749h-231v69h442v-1890h-442v72z" />
<glyph unicode="^" d="M172 938l381 545h84l383 -545h-86l-338 485l-338 -485h-86z" />
<glyph unicode="_" d="M98 -332h996v-69h-996v69z" />
<glyph unicode="`" horiz-adv-x="694" d="M74 1421h248l114 -381h-37z" />
<glyph unicode="a" horiz-adv-x="1101" d="M74 240q0 55 23 101t61.5 78t91.5 57t109 40.5t119.5 25.5t117 13.5t106.5 3.5v129q0 93 -56 139.5t-154 46.5q-35 0 -66 -6.5t-50 -15t-33 -17.5t-20 -15l-6 -7l-47 -164h-71v207q16 10 44 25t113.5 40t169.5 25q94 0 161.5 -14.5t124 -52t85.5 -109t29 -178.5v-500 l161 -12v-57l-315 -23l-63 135q-37 -70 -120 -115t-192 -45q-158 0 -240.5 72.5t-82.5 192.5zM322 254q0 -89 47 -142t137 -53q97 0 146.5 72.5t49.5 192.5v174q-72 -2 -134 -15t-120 -39t-92 -75t-34 -115z" />
<glyph unicode="b" horiz-adv-x="1169" d="M-10 1427v56l274 -4l113 4v-701q49 77 124 120.5t169 43.5q186 0 306 -137t120 -348q0 -205 -134.5 -345.5t-345.5 -140.5q-101 0 -184 44.5t-135 127.5l-102 -147h-41v1413zM377 309q0 -123 62 -193.5t163 -70.5q223 0 229 401q0 416 -215 416q-112 0 -174.5 -80 t-64.5 -204v-269z" />
<glyph unicode="c" horiz-adv-x="1034" d="M74 461q0 206 148 345.5t394 139.5q90 0 172 -16t119 -32l37 -17v-232h-70l-49 164q-2 3 -5.5 8t-18 17t-32.5 21.5t-49.5 17.5t-68.5 8q-313 0 -313 -416q0 -410 297 -410q100 0 176.5 47.5t122.5 131.5h51q-2 -5 -5.5 -14.5t-18.5 -37t-33.5 -52.5t-52.5 -55t-73.5 -52 t-98 -37t-125.5 -15q-121 0 -217.5 38t-158.5 104.5t-95 154.5t-33 189z" />
<glyph unicode="d" horiz-adv-x="1198" d="M76 461q0 204 121 344.5t313 140.5q177 0 285 -127v594l-162 14v56l274 -4l111 4v-1391l162 -12v-57l-361 -23l-22 139q-108 -164 -295 -164q-188 0 -307 137t-119 349zM340 469q0 -410 215 -410q112 0 176 82.5t64 208.5v252q0 120 -62.5 190t-165.5 70 q-106 0 -166 -96.5t-61 -296.5z" />
<glyph unicode="e" horiz-adv-x="1073" d="M74 461q0 133 60 243t173.5 176t259.5 66q93 0 166.5 -25.5t116.5 -66.5t73.5 -90.5t43 -99.5t18.5 -91q5 -35 6 -59q0 -4 -1 -8l-1 -25h-651v-12q0 -90 14 -160.5t46.5 -128.5t92 -89.5t144.5 -31.5q65 0 122 18.5t91 44.5t59 52.5t35 45.5l10 18h56q-4 -11 -13 -28.5 t-44.5 -63t-80 -80t-123 -63t-169.5 -28.5q-226 0 -365 140t-139 346zM340 551h391q0 16 0.5 32t-0.5 32q-1 32 -10 84.5t-26 90.5t-52 66.5t-84 28.5q-198 0 -219 -334z" />
<glyph unicode="f" horiz-adv-x="704" d="M18 852v51l177 12v115q0 134 56.5 244t151 171.5t205.5 61.5q35 0 64.5 -6.5t46.5 -15.5t28.5 -18.5t16.5 -16.5l4 -6v-232h-70l-45 164q-1 3 -3 7.5t-11 16.5t-20 21.5t-31.5 17t-44.5 7.5q-27 0 -47 -3.5t-34 -13.5t-23.5 -20.5t-14.5 -32t-7 -40.5t-2.5 -53.5t0.5 -63 t2 -76.5t1 -88v-133h258v-70h-258v-782l209 -13v-57l-322 6l-272 -6v57l162 13v782h-177z" />
<glyph unicode="g" horiz-adv-x="1114" d="M63 -186q0 75 53 117t128 59q-63 6 -106.5 53t-43.5 123q0 50 22 88t58.5 58.5t67 30.5t63.5 15q-194 84 -194 269q0 146 119 232.5t315 86.5q107 0 196 -28l365 4l18 -56l-241 -24q100 -84 100 -215q0 -147 -120 -234.5t-318 -87.5q-78 0 -158 17q-1 -1 -16 0.5 t-38.5 -3t-45.5 -10.5t-38 -22.5t-16 -40.5q0 -80 154 -80h404q268 0 268 -238q0 -329 -549 -329q-128 0 -224.5 20t-159.5 69.5t-63 125.5zM262 -172q0 -174 318 -174q93 0 166 17t122.5 60t49.5 107q0 79 -57.5 106t-203.5 27h-266h-80q-49 -53 -49 -143zM354 627 q0 -58 8 -101.5t28.5 -80.5t59 -56.5t95.5 -19.5t96 19.5t59.5 56.5t28.5 80.5t8 101.5q0 57 -8 100.5t-28.5 81t-59.5 57t-96 19.5q-56 0 -95 -20t-59 -57t-28.5 -80.5t-8.5 -100.5z" />
<glyph unicode="h" horiz-adv-x="1224" d="M18 1427v56l273 -4l112 4v-770q51 108 141.5 170.5t205.5 62.5q139 0 219 -83t80 -214v-579l139 -13v-57l-250 6l-227 -6v57l114 13v510q0 53 -8 94t-27.5 76t-57 54t-91.5 19q-100 0 -167.5 -79t-70.5 -191v-483l140 -13v-57l-252 6l-228 -6v57l117 13v1345z" />
<glyph unicode="i" horiz-adv-x="624" d="M55 864v58l273 -7l112 7v-852l140 -13v-57l-252 6l-248 -6v57l137 13v782zM193 1337q0 57 39.5 97.5t95.5 40.5q57 0 97 -40.5t40 -97.5q0 -55 -40 -94t-97 -39q-56 0 -95.5 39t-39.5 94z" />
<glyph unicode="j" horiz-adv-x="649" d="M-102 -102h71l47 -166q1 -3 3 -8t11 -18t20 -22.5t30.5 -17.5t42.5 -8q27 0 47 3.5t34 14t23.5 21.5t14.5 32.5t7 41t3 54.5v23q0 22 -1 41q-1 29 -2 77.5t-1 88.5v797l-185 12v58l297 -9l111 9v-844q0 -203 -121.5 -341t-290.5 -138q-35 0 -64.5 7t-46.5 16.5t-29 19.5 t-17 17l-4 7v232zM231 1337q0 57 40 97.5t96 40.5q57 0 96 -40.5t39 -97.5q0 -56 -39 -94.5t-96 -38.5q-56 0 -96 39t-40 94z" />
<glyph unicode="k" d="M18 1427v56l273 -4l112 4v-1020l416 389l-184 12v58l225 -7l227 7v-58l-182 -12l-252 -236l426 -550l103 -9v-57l-252 6l-248 -6v57l115 11l-308 395l-86 -82v-311l140 -13v-57l-252 6l-248 -6v57l137 13v1345z" />
<glyph unicode="l" horiz-adv-x="620" d="M45 1427v56l274 -4l113 4v-1413l162 -13v-57l-275 6l-249 -6v57l139 13v1345z" />
<glyph unicode="m" horiz-adv-x="1771" d="M45 864v58l274 -7l113 7v-195q46 100 127 159.5t184 59.5q110 0 180.5 -63.5t88.5 -169.5q49 107 132 170t187 63q128 0 201.5 -83t73.5 -214v-579l137 -13v-57l-250 6l-203 -6v57l92 11v512q0 243 -159 243q-88 0 -145.5 -79t-59.5 -191v-483l137 -13v-57l-248 6 l-227 -6v57l115 13v510q0 243 -160 243q-87 0 -144 -78.5t-59 -191.5v-483l113 -13v-57l-226 6l-227 -6v57l117 13v782z" />
<glyph unicode="n" horiz-adv-x="1251" d="M45 866v56l274 -7l113 7v-209q51 108 140.5 170.5t205.5 62.5q138 0 218.5 -83t80.5 -214v-579l137 -13v-57l-247 6l-228 -6v57l115 13v510q0 53 -8 94t-27.5 76t-57 54t-91.5 19q-101 0 -168.5 -79t-69.5 -191v-483l137 -13v-57l-250 6l-227 -6v57l117 13v784z" />
<glyph unicode="o" horiz-adv-x="1153" d="M74 461q0 131 67.5 242.5t183.5 177t253 65.5t252.5 -65.5t182 -177t66.5 -242.5q0 -132 -66.5 -244t-182 -177t-252.5 -65t-253 65t-183.5 177t-67.5 244zM338 461q0 -95 10 -166t35.5 -132t74.5 -93.5t120 -32.5t119.5 32.5t73.5 93.5t35.5 132.5t10.5 165.5 q0 74 -6 133.5t-22 115t-42.5 93t-69 60t-99.5 22.5q-71 0 -120 -32.5t-74.5 -94t-35.5 -132.5t-10 -165z" />
<glyph unicode="p" horiz-adv-x="1198" d="M18 864v58l273 -9l112 9v-140q108 164 293 164q187 0 306.5 -137t119.5 -348q0 -205 -121.5 -345.5t-312.5 -140.5q-176 0 -285 125v-407l185 -15v-57l-297 6l-248 -6v57l137 15v1159zM403 317q0 -120 62.5 -190t165.5 -70q104 0 165 97.5t62 296.5q0 411 -215 411 q-111 0 -174 -79t-66 -203v-263z" />
<glyph unicode="q" horiz-adv-x="1150" d="M76 461q0 133 58.5 243t168.5 176t250 66q206 0 319 -174l103 150h43v-1229l137 -15v-57l-248 6l-299 -6v57l187 15v444q-107 -162 -293 -162q-188 0 -307 136.5t-119 349.5zM340 473q0 -416 215 -416q112 0 176 84.5t64 212.5v269q-4 117 -66.5 184t-161.5 67 q-106 0 -166 -97.5t-61 -303.5z" />
<glyph unicode="r" horiz-adv-x="917" d="M45 864v58l274 -7l113 7v-177q41 93 109.5 147t154.5 54q38 0 72 -6.5t55.5 -16t37 -19.5t21.5 -16l7 -7v-230h-74l-49 164q-3 5 -9 12t-31.5 19t-59.5 12q-101 0 -166.5 -88t-67.5 -215v-485l113 -13v-57l-226 6l-227 -6v57l117 13v782z" />
<glyph unicode="s" horiz-adv-x="935" d="M111 70v231h71l49 -164q3 -4 8.5 -11t28 -24t49 -30t71.5 -24t97 -11q97 0 162.5 41t65.5 115q0 53 -33 86t-86 48.5t-117 27t-128 28.5t-117 45t-86 85t-33 140q0 130 93 211.5t281 81.5q88 0 161 -18t102 -36l30 -18v-231h-71l-52 164q-1 3 -4.5 8.5t-18 19t-33.5 23.5 t-54 18.5t-78 8.5q-98 0 -157.5 -38.5t-59.5 -101.5q0 -44 26 -73.5t68 -43t96.5 -26.5t110.5 -22.5t110.5 -31.5t96.5 -52.5t68 -87.5t26 -134q0 -152 -105 -225.5t-286 -73.5q-65 0 -125.5 10t-100 24t-69.5 27.5t-44 23.5z" />
<glyph unicode="t" horiz-adv-x="745" d="M18 850v53l162 12l148 324h67v-317h281v-72h-281v-619v-7q0 -126 113 -126q50 1 91.5 31t66.5 82h67q-47 -109 -132 -172.5t-195 -63.5q-131 0 -181.5 62t-50.5 182v631h-156z" />
<glyph unicode="u" horiz-adv-x="1179" d="M27 864v58l274 -7l78 7v-582q0 -122 41.5 -182t132.5 -60q98 1 160.5 83t62.5 198v473l-139 12v58l252 -7l110 7v-830l138 -12v-57l-336 -23l-21 207q-51 -107 -137.5 -169.5t-196.5 -62.5q-290 0 -290 308v573z" />
<glyph unicode="v" horiz-adv-x="1036" d="M0 864v58l227 -7l248 7v-58l-135 -12l274 -616l236 614l-195 14v58l228 -7l180 7v-58l-150 -14l-327 -850h-113l-377 854z" />
<glyph unicode="w" horiz-adv-x="1501" d="M0 864v58l227 -7l273 7v-58l-148 -12l207 -590l160 467l-43 123l-115 12v58l225 -7l273 7v-58l-148 -12l207 -588l203 586l-168 14v58l203 -7l180 7v-58l-154 -14l-290 -850h-117l-225 639l-220 -639h-116l-297 852z" />
<glyph unicode="x" horiz-adv-x="1167" d="M45 864v58l227 -7l250 7v-58l-108 -10l213 -268l221 264l-195 14v58l226 -7l180 7v-58l-131 -12l-262 -313l374 -473l117 -9v-57l-272 6l-250 -6v57l119 11l-234 294l-246 -292l187 -13v-57l-228 6l-180 -6v57l144 13l284 342l-352 444z" />
<glyph unicode="y" horiz-adv-x="1036" d="M0 866v56l227 -7l248 7v-56l-135 -12l272 -612q30 72 129 310.5t125 299.5h-4l-207 14v56l228 -7l180 7v-56l-131 -12q-25 -59 -113.5 -270t-165 -391.5t-90.5 -212.5q-18 -41 -29.5 -65.5t-35.5 -69.5t-44.5 -74t-52.5 -65t-64 -57t-74.5 -35.5t-88.5 -14.5q-36 0 -64 7 t-43.5 16.5t-25.5 19.5t-13 17l-3 7v232h69l47 -166q2 -4 7 -10.5t26 -17.5t49 -11q37 0 71.5 18t61.5 45.5t56 72t49 84.5t47 97l-410 846z" />
<glyph unicode="z" horiz-adv-x="929" d="M74 0v70l516 782h-342l-78 -209h-55v279l428 -7l313 7v-70l-516 -782h389l78 209h55v-279l-426 6z" />
<glyph unicode="{" horiz-adv-x="669" d="M57 547v43q10 1 26 4.5t57.5 19.5t73 38t57.5 64t26 95q0 43 -24.5 155t-24.5 183q0 66 21.5 123.5t56 96t75.5 70t82.5 50t76 30.5t56.5 17l21 4v-43q-9 -1 -24 -5t-54 -21t-68.5 -40.5t-54 -68t-24.5 -100.5q0 -49 24.5 -157t24.5 -177q0 -53 -16.5 -102t-43 -84.5 t-59 -65.5t-64.5 -49.5t-58.5 -33.5t-43.5 -20l-16 -6q6 -2 17 -6t42 -19t59.5 -33t63.5 -49t60 -65.5t42 -83.5t17 -102q0 -68 -24.5 -176.5t-24.5 -157.5q0 -41 12.5 -75.5t32.5 -58t43.5 -42t47.5 -29t44 -17t32 -9.5l13 -2v-43q-8 1 -22 4t-54.5 16.5t-77 30.5t-81.5 49 t-77.5 70.5t-54.5 96t-22 124.5q0 70 24.5 181t24.5 155q0 38 -13 71t-34.5 55t-47 39.5t-51 27.5t-47 17t-34.5 9z" />
<glyph unicode="|" horiz-adv-x="364" d="M147 -401v1941h70v-1941h-70z" />
<glyph unicode="}" horiz-adv-x="669" d="M31 -358q9 1 24.5 4.5t54.5 20.5t69 40t54.5 67.5t24.5 100.5q0 49 -24.5 157.5t-24.5 176.5q0 73 31 137t74.5 103t87.5 67t75 40l31 11q-6 2 -17 6t-42 19.5t-59 34t-62.5 49.5t-59.5 66t-42 84t-17 102q0 69 24.5 177t24.5 157q0 56 -23.5 100.5t-57 68.5t-66.5 40 t-57 21l-23 5v43q8 -1 22 -4.5t54.5 -16.5t77 -30.5t81.5 -49.5t77.5 -70.5t54.5 -96t22 -123.5q0 -71 -23.5 -183t-23.5 -155q0 -38 13 -71t34.5 -55t46.5 -39.5t50.5 -27.5t47 -17t34.5 -9l13 -2v-43q-10 -1 -26 -4.5t-57 -19.5t-72.5 -38t-57.5 -64t-26 -95 q0 -44 23.5 -155t23.5 -181q0 -67 -21.5 -124.5t-56 -96t-75.5 -70t-82.5 -49.5t-76 -30t-56.5 -16l-21 -5v43z" />
<glyph unicode="~" horiz-adv-x="1343" d="M74 442q1 7 2.5 18.5t9.5 45t20.5 64t37 67.5t55.5 63.5t80 45t108 18.5q64 0 149.5 -31.5t156 -70t154.5 -70t146 -31.5h2q50 0 92 21t66 50.5t41 59.5t23 51l6 21h47q-1 -7 -2.5 -18.5t-10 -45t-20.5 -64t-37 -67.5t-56 -63.5t-80 -45t-108 -18.5q-64 0 -149.5 31.5 t-156 69t-154.5 69t-146 31.5q-50 0 -92.5 -20.5t-66.5 -50.5t-41 -59.5t-23 -50.5l-6 -20h-47z" />
<glyph unicode="&#xa1;" horiz-adv-x="788" d="M248 1020q0 62 43 104.5t104 42.5q60 0 104 -43t44 -104q0 -60 -44 -103t-104 -43q-61 0 -104 43t-43 103zM285 -373l69 1045h82l70 -1045h-221z" />
<glyph unicode="&#xa2;" d="M139 461q0 100 38 188t106.5 154t171.5 104.5t227 38.5q9 0 27.5 -1t27.5 -1l99 369h73l-100 -377q56 -7 106.5 -21t72.5 -24l22 -10v-232h-70l-47 164q-3 5 -9.5 12.5t-32.5 24t-58 24.5l-213 -792q50 -23 122 -23q99 0 176.5 47.5t122.5 131.5h50q-2 -5 -5.5 -14.5 t-18.5 -37t-34 -52.5t-53 -55t-73.5 -52t-98 -37t-125.5 -15q-43 0 -90 7l-102 -383h-74l106 397q-165 42 -254.5 168t-89.5 297zM403 469q0 -253 113 -350l205 766h-4q-314 0 -314 -416z" />
<glyph unicode="&#xa5;" d="M-84 1454v57l322 -6l342 6v-57l-191 -12l316 -697l299 697l-277 14v55l320 -6l227 6v-55l-176 -12l-340 -797v-41h377v-69h-377v-170h377v-70h-377v-227l205 -13v-57l-345 6l-344 -6v57l205 13v227h-377v70h377v170h-377v69h357l-379 836z" />
<glyph unicode="&#xa6;" horiz-adv-x="364" d="M147 -401v872h70v-872h-70zM147 668v872h70v-872h-70z" />
<glyph unicode="&#xa8;" horiz-adv-x="694" d="M37 1137q0 47 34 80.5t81 33.5t80.5 -33.5t33.5 -80.5q0 -46 -33.5 -81.5t-80.5 -35.5t-81 35.5t-34 81.5zM428 1137q0 47 35.5 80.5t81.5 33.5q47 0 79.5 -33.5t32.5 -80.5t-33 -82t-79 -35t-81.5 35.5t-35.5 81.5z" />
<glyph unicode="&#xa9;" horiz-adv-x="1718" d="M74 756q0 159 62 304t167.5 250.5t250.5 167.5t304 62q160 0 305.5 -62t251 -167.5t168 -250.5t62.5 -304q0 -160 -62.5 -305.5t-168 -250.5t-251 -167t-305.5 -62q-159 0 -304 62t-250.5 167t-167.5 250.5t-62 305.5zM154 756q0 -144 55.5 -275t150 -225.5t225 -150.5 t273.5 -56q191 0 354 94.5t258 257.5t95 355q0 143 -56 274t-151 225.5t-226 150.5t-274 56t-273.5 -56t-225 -150.5t-150 -225.5t-55.5 -274zM428 756q0 200 129.5 335.5t335.5 135.5q76 0 145 -14t100 -28l31 -14v-223h-41l-32 142q-1 4 -4.5 11t-18 24t-34 30t-56 24 t-80.5 11q-95 0 -160 -59t-93.5 -154.5t-28.5 -220.5q0 -428 294 -428q59 0 108 21t78 51t49.5 60t27.5 51l8 21h31q-1 -5 -4 -14t-14.5 -34.5t-26.5 -49t-43 -52t-61.5 -49t-83.5 -34.5t-107 -14q-131 0 -234.5 63.5t-159 170.5t-55.5 237z" />
<glyph unicode="&#xad;" horiz-adv-x="788" d="M182 424v184h424v-184h-424z" />
<glyph unicode="&#xae;" horiz-adv-x="1718" d="M74 756q0 159 62 304t167.5 250.5t250.5 167.5t304 62q160 0 305.5 -62t251 -167.5t168 -250.5t62.5 -304q0 -160 -62.5 -305.5t-168 -250.5t-251 -167t-305.5 -62q-159 0 -304 62t-250.5 167t-167.5 250.5t-62 305.5zM154 756q0 -144 55.5 -275t150 -225.5t225 -150.5 t273.5 -56q191 0 354 94.5t258 257.5t95 355q0 143 -56 274t-151 225.5t-226 150.5t-274 56t-273.5 -56t-225 -150.5t-150 -225.5t-55.5 -274zM442 297v33l109 10v823l-109 6v35l193 -4l254 4q332 0 332 -229q0 -55 -24 -95.5t-67 -64.5t-92 -36.5t-108 -16.5 q65 -6 111 -38.5t66 -76.5t35.5 -94.5t24 -92.5t26.5 -70t46 -28q16 0 30.5 10t21.5 20l7 11l27 -10q-1 -5 -4.5 -12.5t-16.5 -27t-29.5 -34.5t-47 -27.5t-66.5 -12.5q-60 0 -97 25.5t-51.5 67t-22 91l-15 99t-22 91t-51.5 67t-97 25.5h-86v-405l108 -10v-33l-192 4z M719 782h102q207 0 207 193q0 99 -52 146.5t-136 47.5h-121v-387z" />
<glyph unicode="&#xb1;" d="M98 240v69h463v393h-463v70h463v463h70v-463h463v-70h-463v-393h463v-69h-996z" />
<glyph unicode="&#xb4;" horiz-adv-x="694" d="M258 1040l117 381h246l-326 -381h-37z" />
<glyph unicode="&#xb5;" horiz-adv-x="2072" d="M102 -86q0 303 394 492q-33 194 -33 329q0 59 54 89t109 17t58 -59q-20 -19 -20.5 -65t10.5 -97.5t35 -134.5q95 28 151 41q-12 90 -18 154t-6.5 141t9.5 130t34 106t63 85t100 52t142 20q108 0 182 -57q79 154 297 154q59 0 106 -13t78.5 -33.5t54.5 -53t35.5 -64 t19.5 -73.5t9 -75.5t2 -76.5q2 -46 -49 -69.5t-102.5 -8.5t-51.5 61q0 23 4 66.5t7 77t-0.5 74t-15.5 67.5t-42 45t-76 18q-125 0 -147 -119q-17 -95 30 -331q8 -36 24 -113q9 -44 14 -67l264 8q34 0 52 -47.5t-1.5 -94.5t-75.5 -47q-84 13 -213 21q41 -226 41 -385 q0 -59 -60 -89t-121 -17t-63 59q0 123 -38 440q-158 0 -242 -8q45 -221 45 -385q0 -59 -60 -89t-121 -17t-63 59q0 45 -4 101.5t-8 94t-13 110.5t-12 101q-104 -22 -141 -32q28 -97 43 -157t31.5 -154.5t14 -155t-21 -131.5t-61.5 -112t-120 -69t-185 -28q-80 0 -141 21.5 t-95.5 54t-56 77t-28.5 83t-7 79.5zM279 -68q0 -276 174 -276q44 0 74.5 13.5t48 36t23.5 61t5 77.5t-11 97t-21 108.5t-27 121.5q-22 96 -33 146q-233 -134 -233 -385zM455 1053q0 49 31 79.5t100 30.5q67 0 100 -31t33 -79t-33 -78.5t-100 -30.5q-69 0 -100 30t-31 79z M1015 1041q-15 -89 33 -309q6 -31 21 -95q9 -42 14 -64q165 23 250 31q-26 243 -14 369q-3 40 -11 70t-24.5 57.5t-46.5 42t-74 14.5q-127 0 -148 -116z" />
<glyph unicode="&#xb6;" horiz-adv-x="1038" d="M92 1090q0 185 118 303.5t341 117.5h395v-57h-80v-1855h-57v1855h-201v-1855h-57v1069q-113 0 -202 33t-144.5 91t-84 133.5t-28.5 164.5z" />
<glyph unicode="&#xb8;" horiz-adv-x="694" d="M193 -367l12 33q19 -4 37 -4q56 0 87 33t31 78q0 71 -77 71l-27 -2l111 181h59l-49 -80q5 -1 13.5 -3t30 -12.5t38 -25t30 -42.5t13.5 -63q0 -72 -57.5 -126t-157.5 -54q-27 0 -50.5 4t-33.5 8z" />
<glyph unicode="&#xbf;" horiz-adv-x="907" d="M80 -70q0 68 21 126.5t54 101.5t73 84.5t80.5 84t73.5 90t54 113t21 142.5h84q0 -124 -20 -221t-48.5 -158.5t-57.5 -117t-49 -127.5t-20 -159q0 -98 45 -164.5t144 -66.5q42 0 75 11.5t50 28t28 32.5t14 28l3 11l36 221h68v-258q-4 -5 -11.5 -14t-36 -32t-62.5 -40.5 t-90.5 -32t-119.5 -14.5q-197 0 -303 90t-106 241zM350 1020q0 61 44 104t104 43q61 0 103 -42.5t42 -104.5q0 -60 -42 -103t-103 -43q-60 0 -104 43t-44 103z" />
<glyph unicode="&#xc0;" horiz-adv-x="1466" d="M-55 0v55l166 13l507 1443h201l516 -1443l160 -11v-57l-321 6l-320 -6v57l184 13l-153 432h-527l-153 -434l264 -13v-55l-322 6zM385 580h471l-238 663zM496 2011h247l115 -381h-37z" />
<glyph unicode="&#xc1;" horiz-adv-x="1466" d="M-55 0v55l166 13l507 1443h201l516 -1443l160 -11v-57l-321 6l-320 -6v57l184 13l-153 432h-527l-153 -434l264 -13v-55l-322 6zM385 580h471l-238 663zM588 1630l117 381h245l-325 -381h-37z" />
<glyph unicode="&#xc2;" horiz-adv-x="1466" d="M-55 0v55l166 13l507 1443h201l516 -1443l160 -11v-57l-321 6l-320 -6v57l184 13l-153 432h-527l-153 -434l264 -13v-55l-322 6zM385 580h471l-238 663zM422 1640l211 367h203l208 -367h-32l-279 236l-278 -236h-33z" />
<glyph unicode="&#xc3;" horiz-adv-x="1466" d="M-55 0v55l166 13l507 1443h201l516 -1443l160 -11v-57l-321 6l-320 -6v57l184 13l-153 432h-527l-153 -434l264 -13v-55l-322 6zM379 1618v16.5t4 40t10.5 57t22 60.5t37 56.5t56.5 40t79 16.5q56 0 111 -24t91.5 -53t79.5 -53t78 -24q40 0 66 38.5t32 76.5l7 39h34 v-16.5t-3.5 -40.5t-10.5 -57.5t-22.5 -61.5t-37 -58t-57 -40.5t-79.5 -16.5q-46 0 -91 16t-80 39t-66.5 45.5t-63 38.5t-58.5 16t-47.5 -15.5t-30 -37.5t-16 -44.5t-7.5 -37.5l-1 -16h-37zM385 580h471l-238 663z" />
<glyph unicode="&#xc4;" horiz-adv-x="1466" d="M-55 0v55l166 13l507 1443h201l516 -1443l160 -11v-57l-321 6l-320 -6v57l184 13l-153 432h-527l-153 -434l264 -13v-55l-322 6zM385 580h471l-238 663zM422 1755q0 47 34 81t81 34t80.5 -34t33.5 -81q0 -46 -33.5 -81.5t-80.5 -35.5t-81 35.5t-34 81.5zM813 1755 q0 47 35.5 81t81.5 34q47 0 79.5 -33.5t32.5 -81.5q0 -47 -33 -82t-79 -35t-81.5 35.5t-35.5 81.5z" />
<glyph unicode="&#xc5;" horiz-adv-x="1466" d="M-55 0v55l166 13l497 1415q-61 48 -61 129q0 69 48.5 117.5t117.5 48.5t118.5 -48.5t49.5 -117.5q0 -73 -56 -123l510 -1421l160 -11v-57l-321 6l-320 -6v57l184 13l-153 432h-527l-153 -434l264 -13v-55l-322 6zM385 580h471l-238 663zM616 1612q0 -41 28 -68.5 t69 -27.5t69.5 27.5t28.5 68.5t-28.5 68.5t-69.5 27.5t-69 -27.5t-28 -68.5z" />
<glyph unicode="&#xc6;" horiz-adv-x="1900" d="M-147 0v55l174 13l637 1374l-181 12v57l400 -6l837 6l39 -383h-47l-156 326h-534v-645h301l66 238h53l-6 -279l6 -279h-53l-66 240h-301v-672h580l157 351h49l-43 -408l-882 6l-322 -6v57l182 13v432h-440l-201 -434l275 -13v-55l-322 6zM340 580h403v862z" />
<glyph unicode="&#xc7;" horiz-adv-x="1404" d="M74 756q0 162 56 305.5t156 249.5t246.5 167.5t317.5 61.5q126 0 240 -22.5t166 -45.5l51 -22v-375h-68l-51 238q-2 7 -7.5 18t-30 40t-57 51.5t-93 40.5t-134.5 18q-120 0 -212 -56.5t-147.5 -156.5t-83.5 -229t-28 -283q0 -131 16 -237.5t52.5 -196t92.5 -150 t139.5 -94t191.5 -33.5q71 0 133.5 18.5t106.5 48.5t81 66t60 72t38.5 66t21.5 48l7 19h51q-2 -8 -6.5 -22.5t-23 -56.5t-42.5 -80t-68.5 -85t-98 -81t-133.5 -58.5t-172 -26.5l-19 -30q5 -1 13.5 -3t30 -12.5t38 -25t30 -42.5t13.5 -63q0 -72 -57.5 -126t-157.5 -54 q-27 0 -50.5 4t-33.5 8l-10 4l12 33q19 -4 37 -4q57 0 88 33t31 78q0 37 -22 54t-56 17l-27 -2l80 131q-157 7 -290.5 71t-224.5 169t-142 245.5t-51 297.5z" />
<glyph unicode="&#xc8;" horiz-adv-x="1415" d="M78 0v57l180 13v1372l-180 12v57l319 -6l838 6l41 -383h-49l-156 326h-534v-645h301l65 238h53l-6 -279l6 -279h-53l-65 240h-301v-672h579l158 351h49l-43 -408l-883 6zM469 2011h248l114 -381h-36z" />
<glyph unicode="&#xc9;" horiz-adv-x="1415" d="M78 0v57l180 13v1372l-180 12v57l319 -6l838 6l41 -383h-49l-156 326h-534v-645h301l65 238h53l-6 -279l6 -279h-53l-65 240h-301v-672h579l158 351h49l-43 -408l-883 6zM561 1630l117 381h246l-326 -381h-37z" />
<glyph unicode="&#xca;" horiz-adv-x="1415" d="M78 0v57l180 13v1372l-180 12v57l319 -6l838 6l41 -383h-49l-156 326h-534v-645h301l65 238h53l-6 -279l6 -279h-53l-65 240h-301v-672h579l158 351h49l-43 -408l-883 6zM395 1640l211 367h203l209 -367h-33l-278 236l-279 -236h-33z" />
<glyph unicode="&#xcb;" horiz-adv-x="1415" d="M78 0v57l180 13v1372l-180 12v57l319 -6l838 6l41 -383h-49l-156 326h-534v-645h301l65 238h53l-6 -279l6 -279h-53l-65 240h-301v-672h579l158 351h49l-43 -408l-883 6zM395 1755q0 47 34 81t81 34t81 -34t34 -81q0 -46 -34 -81.5t-81 -35.5t-81 35.5t-34 81.5z M786 1755q0 47 35.5 81t81.5 34q47 0 80 -34t33 -81q0 -46 -33 -81.5t-80 -35.5q-46 0 -81.5 35.5t-35.5 81.5z" />
<glyph unicode="&#xcc;" horiz-adv-x="788" d="M74 0v57l180 13v1372l-180 12v57l321 -6l320 6v-57l-183 -12v-1372l183 -13v-57l-320 6zM137 2011h248l115 -381h-37z" />
<glyph unicode="&#xcd;" horiz-adv-x="788" d="M74 0v57l180 13v1372l-180 12v57l321 -6l320 6v-57l-183 -12v-1372l183 -13v-57l-320 6zM287 1630l116 381h246l-325 -381h-37z" />
<glyph unicode="&#xce;" horiz-adv-x="788" d="M74 0v57l180 13v1372l-180 12v57l321 -6l320 6v-57l-183 -12v-1372l183 -13v-57l-320 6zM82 1640l211 367h203l209 -367h-33l-279 236l-278 -236h-33z" />
<glyph unicode="&#xcf;" horiz-adv-x="788" d="M74 0v57l180 13v1372l-180 12v57l321 -6l320 6v-57l-183 -12v-1372l183 -13v-57l-320 6zM82 1755q0 47 34 81t81 34t80.5 -34t33.5 -81q0 -46 -33.5 -81.5t-80.5 -35.5t-81 35.5t-34 81.5zM473 1755q0 47 35.5 81t81.5 34q47 0 79.5 -33.5t32.5 -81.5q0 -47 -33 -82 t-79 -35t-81.5 35.5t-35.5 81.5z" />
<glyph unicode="&#xd0;" horiz-adv-x="1607" d="M84 0v57l182 13v665h-182v80h182v627l-182 12v57l322 -6l464 6q316 0 493 -198t177 -557q0 -140 -40.5 -262.5t-109.5 -211.5t-160.5 -153.5t-195.5 -96.5t-211 -32l-417 6zM543 57h213q52 0 98 8.5t94 30.5t87.5 56.5t74.5 89.5t59 126.5t38 170t14 217.5 q0 184 -32.5 321.5t-91 218t-132.5 119.5t-164 39h-258v-639h280v-80h-280v-678z" />
<glyph unicode="&#xd1;" horiz-adv-x="1619" d="M27 0v55l229 13v1376l-229 12v55l274 -6l236 6l770 -1101v1034l-230 12v55l275 -6l250 6v-55l-207 -12v-1444h-142l-909 1325v-1257l231 -13v-55l-274 6zM457 1618v16.5t4 40t10.5 57t22 60.5t37 56.5t56.5 40t79 16.5q56 0 111 -24t91.5 -53t79.5 -53t78 -24q25 0 45 16 t30.5 38.5t17.5 45t9 38.5l2 16h35v-16.5t-4 -40.5t-10.5 -57.5t-22.5 -61.5t-37.5 -58t-57 -40.5t-79.5 -16.5q-46 0 -91 16t-79.5 39t-66 45.5t-63 38.5t-58.5 16t-47.5 -15.5t-30 -37.5t-16 -44.5t-7.5 -37.5l-1 -16h-37z" />
<glyph unicode="&#xd2;" horiz-adv-x="1628" d="M74 756q0 160 58.5 305t157.5 250t236 167t287 62q151 0 288.5 -62t236.5 -167t157.5 -250t58.5 -305q0 -128 -37.5 -248t-106 -216.5t-159.5 -169t-204 -112t-234 -39.5q-150 0 -287 62t-236 167t-157.5 250.5t-58.5 305.5zM395 756q0 -153 24.5 -282.5t74 -230 t131 -157.5t188.5 -57t189.5 57t132 157.5t74 229.5t24.5 283t-24.5 283t-74 229t-132 156.5t-189.5 56.5t-188.5 -56.5t-131 -156.5t-74 -229t-24.5 -283zM541 2011h247l115 -381h-37z" />
<glyph unicode="&#xd3;" horiz-adv-x="1628" d="M74 756q0 160 58.5 305t157.5 250t236 167t287 62q151 0 288.5 -62t236.5 -167t157.5 -250t58.5 -305q0 -128 -37.5 -248t-106 -216.5t-159.5 -169t-204 -112t-234 -39.5q-150 0 -287 62t-236 167t-157.5 250.5t-58.5 305.5zM395 756q0 -153 24.5 -282.5t74 -230 t131 -157.5t188.5 -57t189.5 57t132 157.5t74 229.5t24.5 283t-24.5 283t-74 229t-132 156.5t-189.5 56.5t-188.5 -56.5t-131 -156.5t-74 -229t-24.5 -283zM725 1630l117 381h245l-325 -381h-37z" />
<glyph unicode="&#xd4;" horiz-adv-x="1628" d="M74 756q0 160 58.5 305t157.5 250t236 167t287 62q151 0 288.5 -62t236.5 -167t157.5 -250t58.5 -305q0 -128 -37.5 -248t-106 -216.5t-159.5 -169t-204 -112t-234 -39.5q-150 0 -287 62t-236 167t-157.5 250.5t-58.5 305.5zM395 756q0 -153 24.5 -282.5t74 -230 t131 -157.5t188.5 -57t189.5 57t132 157.5t74 229.5t24.5 283t-24.5 283t-74 229t-132 156.5t-189.5 56.5t-188.5 -56.5t-131 -156.5t-74 -229t-24.5 -283zM502 1640l211 367h202l209 -367h-32l-279 236l-278 -236h-33z" />
<glyph unicode="&#xd5;" horiz-adv-x="1628" d="M74 756q0 160 58.5 305t157.5 250t236 167t287 62q151 0 288.5 -62t236.5 -167t157.5 -250t58.5 -305q0 -128 -37.5 -248t-106 -216.5t-159.5 -169t-204 -112t-234 -39.5q-150 0 -287 62t-236 167t-157.5 250.5t-58.5 305.5zM395 756q0 -153 24.5 -282.5t74 -230 t131 -157.5t188.5 -57t189.5 57t132 157.5t74 229.5t24.5 283t-24.5 283t-74 229t-132 156.5t-189.5 56.5t-188.5 -56.5t-131 -156.5t-74 -229t-24.5 -283zM461 1618v16.5t4 40t10.5 57t22 60.5t37 56.5t56.5 40t79 16.5q56 0 111 -24t91.5 -53t79.5 -53t78 -24 q40 0 66 38.5t32 76.5l7 39h34v-16.5t-4 -40.5t-10.5 -57.5t-22.5 -61.5t-37.5 -58t-57 -40.5t-79.5 -16.5q-46 0 -91 16t-79.5 39t-66 45.5t-63 38.5t-58.5 16t-47.5 -15.5t-30 -37.5t-16 -44.5t-7.5 -37.5l-1 -16h-37z" />
<glyph unicode="&#xd6;" horiz-adv-x="1628" d="M74 756q0 160 58.5 305t157.5 250t236 167t287 62q151 0 288.5 -62t236.5 -167t157.5 -250t58.5 -305q0 -128 -37.5 -248t-106 -216.5t-159.5 -169t-204 -112t-234 -39.5q-150 0 -287 62t-236 167t-157.5 250.5t-58.5 305.5zM395 756q0 -153 24.5 -282.5t74 -230 t131 -157.5t188.5 -57t189.5 57t132 157.5t74 229.5t24.5 283t-24.5 283t-74 229t-132 156.5t-189.5 56.5t-188.5 -56.5t-131 -156.5t-74 -229t-24.5 -283zM504 1755q0 47 33.5 81t80.5 34t81 -34t34 -81q0 -46 -34 -81.5t-81 -35.5t-80.5 35.5t-33.5 81.5zM895 1755 q0 47 35.5 81t81.5 34q47 0 79.5 -33.5t32.5 -81.5q0 -47 -33 -82t-79 -35t-81.5 35.5t-35.5 81.5z" />
<glyph unicode="&#xd7;" d="M219 412l326 325l-326 326l49 51l328 -328l326 328l49 -51l-326 -326l326 -325l-49 -52l-326 328l-328 -328z" />
<glyph unicode="&#xd8;" horiz-adv-x="1628" d="M74 756q0 160 58.5 305t157.5 250t236 167t287 62q189 0 356 -96l72 123l59 -35l-73 -125q152 -109 239.5 -280.5t87.5 -370.5q0 -128 -37.5 -248t-106 -216.5t-159.5 -169t-204 -112t-234 -39.5q-189 0 -358 97l-70 -123l-61 35l73 126q-149 108 -236 279.5t-87 370.5z M395 756q0 -311 90 -498l615 1065q-110 158 -287 158q-107 0 -188.5 -56.5t-131 -156.5t-74 -229t-24.5 -283zM524 188q111 -159 289 -159q107 0 189.5 57t132 157.5t74 229.5t24.5 283q0 309 -92 497z" />
<glyph unicode="&#xd9;" horiz-adv-x="1624" d="M37 1456v55l321 -6l342 6v-55l-204 -12v-938q0 -237 112 -357t324 -120q133 0 225.5 66t135 175.5t42.5 253.5v920l-229 12v55l272 -6l228 6v-55l-183 -10v-983q0 -107 -35.5 -195.5t-105 -155.5t-181 -104t-255.5 -37q-306 0 -467.5 119.5t-161.5 358.5v997zM631 2011 h248l114 -381h-37z" />
<glyph unicode="&#xda;" horiz-adv-x="1624" d="M37 1456v55l321 -6l342 6v-55l-204 -12v-938q0 -237 112 -357t324 -120q133 0 225.5 66t135 175.5t42.5 253.5v920l-229 12v55l272 -6l228 6v-55l-183 -10v-983q0 -107 -35.5 -195.5t-105 -155.5t-181 -104t-255.5 -37q-306 0 -467.5 119.5t-161.5 358.5v997zM760 1630 l117 381h245l-325 -381h-37z" />
<glyph unicode="&#xdb;" horiz-adv-x="1624" d="M37 1456v55l321 -6l342 6v-55l-204 -12v-938q0 -237 112 -357t324 -120q133 0 225.5 66t135 175.5t42.5 253.5v920l-229 12v55l272 -6l228 6v-55l-183 -10v-983q0 -107 -35.5 -195.5t-105 -155.5t-181 -104t-255.5 -37q-306 0 -467.5 119.5t-161.5 358.5v997zM573 1640 l211 367h203l209 -367h-33l-278 236l-279 -236h-33z" />
<glyph unicode="&#xdc;" horiz-adv-x="1624" d="M37 1456v55l321 -6l342 6v-55l-204 -12v-938q0 -237 112 -357t324 -120q133 0 225.5 66t135 175.5t42.5 253.5v920l-229 12v55l272 -6l228 6v-55l-183 -10v-983q0 -107 -35.5 -195.5t-105 -155.5t-181 -104t-255.5 -37q-306 0 -467.5 119.5t-161.5 358.5v997zM584 1755 q0 47 33.5 81t80.5 34t81 -34t34 -81q0 -46 -34 -81.5t-81 -35.5t-80.5 35.5t-33.5 81.5zM975 1755q0 47 35.5 81t81.5 34q47 0 79.5 -33.5t32.5 -81.5q0 -47 -33 -82t-79 -35t-81.5 35.5t-35.5 81.5z" />
<glyph unicode="&#xdd;" horiz-adv-x="1454" d="M-29 1454v57l322 -6l342 6v-57l-182 -12l399 -709l381 709l-270 14v55l319 -6l227 6v-55l-174 -12l-434 -807v-567l205 -13v-57l-342 6l-346 -6v57l205 13v503l-490 869zM711 1630l116 381h246l-325 -381h-37z" />
<glyph unicode="&#xde;" horiz-adv-x="1464" d="M82 0v57l182 13v1372l-182 12v57l321 -6l322 6v-57l-182 -12v-1372l182 -13v-57l-322 6zM403 1192l478 6q261 0 394.5 -97t133.5 -302q0 -87 -30.5 -156.5t-81 -114.5t-120.5 -75t-145 -43t-158 -13h-387zM543 455h184q363 0 363 344q0 90 -25.5 157.5t-71.5 107 t-103.5 58.5t-127.5 19h-219v-686z" />
<glyph unicode="&#xdf;" horiz-adv-x="1101" d="M18 0v57l138 13v1058q0 188 97.5 283.5t313.5 95.5q387 0 387 -315q0 -119 -69.5 -191t-173.5 -96q150 -31 237.5 -150.5t87.5 -340.5q0 -120 -41 -218.5t-125 -159.5t-198 -61q-48 0 -88 10.5t-63 25.5t-39 30.5t-22 26.5l-5 10v186h69l45 -153q1 -3 3 -7.5t9.5 -15.5 t16.5 -20t23.5 -16t31.5 -7q56 0 87.5 95t31.5 259q0 465 -201 465h-77v70h92l-2 2q106 0 106 250q0 116 -39.5 183t-113.5 67q-91 0 -124.5 -56t-33.5 -180v-1200l-137 6z" />
<glyph unicode="&#xe0;" horiz-adv-x="1101" d="M74 240q0 55 23 101t61.5 78t91.5 57t109 40.5t119.5 25.5t117 13.5t106.5 3.5v129q0 93 -56 139.5t-154 46.5q-35 0 -66 -6.5t-50 -15t-33 -17.5t-20 -15l-6 -7l-47 -164h-71v207q16 10 44 25t113.5 40t169.5 25q94 0 161.5 -14.5t124 -52t85.5 -109t29 -178.5v-500 l161 -12v-57l-315 -23l-63 135q-37 -70 -120 -115t-192 -45q-158 0 -240.5 72.5t-82.5 192.5zM322 254q0 -89 47 -142t137 -53q97 0 146.5 72.5t49.5 192.5v174q-72 -2 -134 -15t-120 -39t-92 -75t-34 -115zM332 1421h248l114 -381h-37z" />
<glyph unicode="&#xe1;" horiz-adv-x="1101" d="M74 240q0 55 23 101t61.5 78t91.5 57t109 40.5t119.5 25.5t117 13.5t106.5 3.5v129q0 93 -56 139.5t-154 46.5q-35 0 -66 -6.5t-50 -15t-33 -17.5t-20 -15l-6 -7l-47 -164h-71v207q16 10 44 25t113.5 40t169.5 25q94 0 161.5 -14.5t124 -52t85.5 -109t29 -178.5v-500 l161 -12v-57l-315 -23l-63 135q-37 -70 -120 -115t-192 -45q-158 0 -240.5 72.5t-82.5 192.5zM322 254q0 -89 47 -142t137 -53q97 0 146.5 72.5t49.5 192.5v174q-72 -2 -134 -15t-120 -39t-92 -75t-34 -115zM461 1040l117 381h245l-325 -381h-37z" />
<glyph unicode="&#xe2;" horiz-adv-x="1101" d="M74 240q0 55 23 101t61.5 78t91.5 57t109 40.5t119.5 25.5t117 13.5t106.5 3.5v129q0 93 -56 139.5t-154 46.5q-35 0 -66 -6.5t-50 -15t-33 -17.5t-20 -15l-6 -7l-47 -164h-71v207q16 10 44 25t113.5 40t169.5 25q94 0 161.5 -14.5t124 -52t85.5 -109t29 -178.5v-500 l161 -12v-57l-315 -23l-63 135q-37 -70 -120 -115t-192 -45q-158 0 -240.5 72.5t-82.5 192.5zM240 1051l211 366h202l209 -366h-33l-278 235l-279 -235h-32zM322 254q0 -89 47 -142t137 -53q97 0 146.5 72.5t49.5 192.5v174q-72 -2 -134 -15t-120 -39t-92 -75t-34 -115z" />
<glyph unicode="&#xe3;" horiz-adv-x="1101" d="M74 240q0 55 23 101t61.5 78t91.5 57t109 40.5t119.5 25.5t117 13.5t106.5 3.5v129q0 93 -56 139.5t-154 46.5q-35 0 -66 -6.5t-50 -15t-33 -17.5t-20 -15l-6 -7l-47 -164h-71v207q16 10 44 25t113.5 40t169.5 25q94 0 161.5 -14.5t124 -52t85.5 -109t29 -178.5v-500 l161 -12v-57l-315 -23l-63 135q-37 -70 -120 -115t-192 -45q-158 0 -240.5 72.5t-82.5 192.5zM197 1028v16.5t4 40t10.5 57t22 60.5t37 56.5t56.5 40t79 16.5q56 0 111 -24t91.5 -53t79.5 -53t78 -24q25 0 45 16t30.5 38.5t17.5 45t9 38.5l2 16h35v-16.5t-4 -40.5 t-10.5 -57.5t-22.5 -61.5t-37.5 -58t-57 -40.5t-79.5 -16.5q-56 0 -112 24.5t-93 53.5t-79 53.5t-74 24.5q-27 0 -47.5 -15.5t-30.5 -38t-16 -45t-8 -37.5l-1 -16h-36zM322 254q0 -89 47 -142t137 -53q97 0 146.5 72.5t49.5 192.5v174q-72 -2 -134 -15t-120 -39t-92 -75 t-34 -115z" />
<glyph unicode="&#xe4;" horiz-adv-x="1101" d="M74 240q0 55 23 101t61.5 78t91.5 57t109 40.5t119.5 25.5t117 13.5t106.5 3.5v129q0 93 -56 139.5t-154 46.5q-35 0 -66 -6.5t-50 -15t-33 -17.5t-20 -15l-6 -7l-47 -164h-71v207q16 10 44 25t113.5 40t169.5 25q94 0 161.5 -14.5t124 -52t85.5 -109t29 -178.5v-500 l161 -12v-57l-315 -23l-63 135q-37 -70 -120 -115t-192 -45q-158 0 -240.5 72.5t-82.5 192.5zM240 1192q0 47 33.5 81t80.5 34t81 -34t34 -81q0 -46 -34 -81.5t-81 -35.5t-80.5 35.5t-33.5 81.5zM322 254q0 -89 47 -142t137 -53q97 0 146.5 72.5t49.5 192.5v174 q-72 -2 -134 -15t-120 -39t-92 -75t-34 -115zM631 1192q0 47 35.5 81t81.5 34q47 0 79.5 -33.5t32.5 -81.5q0 -47 -33 -82t-79 -35t-81.5 35.5t-35.5 81.5z" />
<glyph unicode="&#xe5;" horiz-adv-x="1101" d="M74 240q0 55 23 101t61.5 78t91.5 57t109 40.5t119.5 25.5t117 13.5t106.5 3.5v129q0 93 -56 139.5t-154 46.5q-35 0 -66 -6.5t-50 -15t-33 -17.5t-20 -15l-6 -7l-47 -164h-71v207q16 10 44 25t113.5 40t169.5 25q94 0 161.5 -14.5t124 -52t85.5 -109t29 -178.5v-500 l161 -12v-57l-315 -23l-63 135q-37 -70 -120 -115t-192 -45q-158 0 -240.5 72.5t-82.5 192.5zM322 254q0 -89 47 -142t137 -53q97 0 146.5 72.5t49.5 192.5v174q-72 -2 -134 -15t-120 -39t-92 -75t-34 -115zM383 1188q0 69 48.5 117.5t117.5 48.5t118.5 -48.5t49.5 -117.5 t-49.5 -117.5t-118.5 -48.5t-117.5 48.5t-48.5 117.5zM453 1188q0 -41 27.5 -68.5t68.5 -27.5t69.5 27.5t28.5 68.5t-28.5 68.5t-69.5 27.5t-68.5 -27.5t-27.5 -68.5z" />
<glyph unicode="&#xe6;" horiz-adv-x="1646" d="M74 240q0 60 26.5 109t73.5 82t103.5 57.5t125 38.5t129 21t123.5 9q18 83 47 133q-1 91 -57 137.5t-153 46.5q-35 0 -66 -6.5t-50 -15t-33 -17.5t-20 -15l-6 -7l-47 -164h-71v207q16 10 44 25t113.5 40t169.5 25q225 0 314 -92q132 92 301 92q93 0 166.5 -25.5 t116.5 -66.5t73.5 -90.5t43 -99.5t18.5 -91t5 -67l-1 -25h-652v-12q0 -90 14 -160.5t46.5 -128.5t92 -89.5t144.5 -31.5q65 0 122 18.5t91.5 44.5t59.5 52.5t35 45.5l10 18h55q-4 -11 -13 -28.5t-44.5 -63t-80 -80t-123 -63t-169.5 -28.5q-142 0 -251.5 57.5t-174.5 157.5 l-2 -4l4 -16q-30 -82 -118.5 -138.5t-211.5 -56.5q-158 0 -240.5 72.5t-82.5 192.5zM322 254q0 -89 47 -142t137 -53q80 0 127 48.5t61 134.5q-47 100 -47 219v33q-65 -6 -119.5 -20.5t-102.5 -42t-75.5 -72.5t-27.5 -105zM924 645q0 -8 1 -26t1 -27v-41h379q1 32 0 64 t-10 84.5t-26 90.5t-52 66.5t-84 28.5q-166 0 -209 -240z" />
<glyph unicode="&#xe7;" horiz-adv-x="1034" d="M74 461q0 206 148 345.5t394 139.5q90 0 172 -16t119 -32l37 -17v-232h-70l-49 164q-2 3 -5.5 8t-18 17t-32.5 21.5t-49.5 17.5t-68.5 8q-313 0 -313 -416q0 -410 297 -410q100 0 176.5 47.5t122.5 131.5h51q-3 -10 -10 -27t-37 -60.5t-68.5 -77.5t-109.5 -64t-156 -34 l-20 -32q5 -1 13.5 -3t30 -12.5t38 -25t30 -42.5t13.5 -63q0 -72 -57.5 -126t-157.5 -54q-27 0 -51 4t-34 8l-10 4l13 33q19 -4 37 -4q56 0 87 33t31 78q0 37 -22 54t-56 17l-26 -2l82 135q-113 5 -203.5 45t-148.5 105t-88.5 150.5t-30.5 183.5z" />
<glyph unicode="&#xe8;" horiz-adv-x="1073" d="M74 461q0 133 60 243t173.5 176t259.5 66q93 0 166.5 -25.5t116.5 -66.5t73.5 -90.5t43 -99.5t18.5 -91t5 -67l-1 -25h-651v-12q0 -90 14 -160.5t46.5 -128.5t92 -89.5t144.5 -31.5q65 0 122 18.5t91 44.5t59 52.5t35 45.5l10 18h56q-4 -11 -13 -28.5t-44.5 -63t-80 -80 t-123 -63t-169.5 -28.5q-226 0 -365 140t-139 346zM317 1421h248l115 -381h-37zM340 551h391q1 32 0 64t-10 84.5t-26 90.5t-52 66.5t-84 28.5q-198 0 -219 -334z" />
<glyph unicode="&#xe9;" horiz-adv-x="1073" d="M74 461q0 133 60 243t173.5 176t259.5 66q93 0 166.5 -25.5t116.5 -66.5t73.5 -90.5t43 -99.5t18.5 -91t5 -67l-1 -25h-651v-12q0 -90 14 -160.5t46.5 -128.5t92 -89.5t144.5 -31.5q65 0 122 18.5t91 44.5t59 52.5t35 45.5l10 18h56q-4 -11 -13 -28.5t-44.5 -63t-80 -80 t-123 -63t-169.5 -28.5q-226 0 -365 140t-139 346zM340 551h391q1 32 0 64t-10 84.5t-26 90.5t-52 66.5t-84 28.5q-198 0 -219 -334zM446 1040l117 381h246l-326 -381h-37z" />
<glyph unicode="&#xea;" horiz-adv-x="1073" d="M74 461q0 133 60 243t173.5 176t259.5 66q93 0 166.5 -25.5t116.5 -66.5t73.5 -90.5t43 -99.5t18.5 -91t5 -67l-1 -25h-651v-12q0 -90 14 -160.5t46.5 -128.5t92 -89.5t144.5 -31.5q65 0 122 18.5t91 44.5t59 52.5t35 45.5l10 18h56q-4 -11 -13 -28.5t-44.5 -63t-80 -80 t-123 -63t-169.5 -28.5q-226 0 -365 140t-139 346zM225 1051l211 366h203l209 -366h-33l-278 235l-279 -235h-33zM340 551h391q1 32 0 64t-10 84.5t-26 90.5t-52 66.5t-84 28.5q-198 0 -219 -334z" />
<glyph unicode="&#xeb;" horiz-adv-x="1073" d="M74 461q0 133 60 243t173.5 176t259.5 66q93 0 166.5 -25.5t116.5 -66.5t73.5 -90.5t43 -99.5t18.5 -91t5 -67l-1 -25h-651v-12q0 -90 14 -160.5t46.5 -128.5t92 -89.5t144.5 -31.5q65 0 122 18.5t91 44.5t59 52.5t35 45.5l10 18h56q-4 -11 -13 -28.5t-44.5 -63t-80 -80 t-123 -63t-169.5 -28.5q-226 0 -365 140t-139 346zM244 1192q0 47 33.5 81t80.5 34t81 -34t34 -81q0 -46 -34 -81.5t-81 -35.5t-80.5 35.5t-33.5 81.5zM340 551h391q1 32 0 64t-10 84.5t-26 90.5t-52 66.5t-84 28.5q-198 0 -219 -334zM635 1192q0 47 35.5 81t81.5 34 q47 0 79.5 -33.5t32.5 -81.5q0 -47 -33 -82t-79 -35t-81.5 35.5t-35.5 81.5z" />
<glyph unicode="&#xec;" horiz-adv-x="624" d="M55 864v58l273 -7l112 7v-852l140 -13v-57l-252 6l-248 -6v57l137 13v782zM94 1421h248l115 -381h-37z" />
<glyph unicode="&#xed;" horiz-adv-x="624" d="M55 864v58l273 -7l112 7v-852l140 -13v-57l-252 6l-248 -6v57l137 13v782zM205 1040l117 381h245l-325 -381h-37z" />
<glyph unicode="&#xee;" horiz-adv-x="624" d="M2 1051l211 366h203l209 -366h-33l-279 235l-278 -235h-33zM55 864v58l273 -7l112 7v-852l140 -13v-57l-252 6l-248 -6v57l137 13v782z" />
<glyph unicode="&#xef;" horiz-adv-x="624" d="M2 1192q0 47 34 81t81 34t80.5 -34t33.5 -81q0 -46 -33.5 -81.5t-80.5 -35.5t-81 35.5t-34 81.5zM55 864v58l273 -7l112 7v-852l140 -13v-57l-252 6l-248 -6v57l137 13v782zM393 1192q0 47 35.5 81t81.5 34q47 0 80 -34t33 -81q0 -46 -33 -81.5t-80 -35.5 q-46 0 -81.5 35.5t-35.5 81.5z" />
<glyph unicode="&#xf0;" horiz-adv-x="1163" d="M74 461q0 131 67.5 242.5t183.5 177t253 65.5q86 0 180 -24q-51 147 -142 274l-270 -98l-24 67l251 90q-123 150 -260 228h242q111 -60 209 -158l287 105l24 -66l-256 -94q122 -140 196.5 -323t74.5 -378q0 -168 -60.5 -302t-178 -213t-273.5 -79q-137 0 -253 65 t-183.5 177t-67.5 244zM338 461q0 -95 10 -166t35.5 -132t74.5 -93.5t120 -32.5t119.5 32.5t73.5 93.5t35.5 132.5t10.5 165.5q0 74 -6 133.5t-22 115t-42.5 93t-69 60t-99.5 22.5q-71 0 -120 -32.5t-74.5 -94t-35.5 -132.5t-10 -165z" />
<glyph unicode="&#xf1;" horiz-adv-x="1251" d="M45 866v56l274 -7l113 7v-209q51 108 140.5 170.5t205.5 62.5q138 0 218.5 -83t80.5 -214v-579l137 -13v-57l-247 6l-228 -6v57l115 13v510q0 53 -8 94t-27.5 76t-57 54t-91.5 19q-101 0 -168.5 -79t-69.5 -191v-483l137 -13v-57l-250 6l-227 -6v57l117 13v784zM291 1028 v16.5t4 40t10.5 57t22 60.5t37 56.5t56.5 40t79 16.5q56 0 111 -24t91.5 -53t79.5 -53t78 -24q40 0 66 38.5t32 76.5l7 39h34v-16.5t-4 -40.5t-10.5 -57.5t-22.5 -61.5t-37.5 -58t-57 -40.5t-79.5 -16.5q-56 0 -112 24.5t-93 53.5t-79 53.5t-74 24.5q-27 0 -47.5 -15.5 t-30 -38t-16 -45t-7.5 -37.5l-1 -16h-37z" />
<glyph unicode="&#xf2;" horiz-adv-x="1153" d="M74 461q0 131 67.5 242.5t183.5 177t253 65.5t252.5 -65.5t182 -177t66.5 -242.5q0 -132 -66.5 -244t-182 -177t-252.5 -65t-253 65t-183.5 177t-67.5 244zM338 461q0 -95 10 -166t35.5 -132t74.5 -93.5t120 -32.5t119.5 32.5t73.5 93.5t35.5 132.5t10.5 165.5 q0 74 -6 133.5t-22 115t-42.5 93t-69 60t-99.5 22.5q-71 0 -120 -32.5t-74.5 -94t-35.5 -132.5t-10 -165zM358 1421h248l115 -381h-37z" />
<glyph unicode="&#xf3;" horiz-adv-x="1153" d="M74 461q0 131 67.5 242.5t183.5 177t253 65.5t252.5 -65.5t182 -177t66.5 -242.5q0 -132 -66.5 -244t-182 -177t-252.5 -65t-253 65t-183.5 177t-67.5 244zM338 461q0 -95 10 -166t35.5 -132t74.5 -93.5t120 -32.5t119.5 32.5t73.5 93.5t35.5 132.5t10.5 165.5 q0 74 -6 133.5t-22 115t-42.5 93t-69 60t-99.5 22.5q-71 0 -120 -32.5t-74.5 -94t-35.5 -132.5t-10 -165zM487 1040l117 381h246l-326 -381h-37z" />
<glyph unicode="&#xf4;" horiz-adv-x="1153" d="M74 461q0 131 67.5 242.5t183.5 177t253 65.5t252.5 -65.5t182 -177t66.5 -242.5q0 -132 -66.5 -244t-182 -177t-252.5 -65t-253 65t-183.5 177t-67.5 244zM266 1051l211 366h203l209 -366h-33l-278 235l-279 -235h-33zM338 461q0 -95 10 -166t35.5 -132t74.5 -93.5 t120 -32.5t119.5 32.5t73.5 93.5t35.5 132.5t10.5 165.5q0 74 -6 133.5t-22 115t-42.5 93t-69 60t-99.5 22.5q-71 0 -120 -32.5t-74.5 -94t-35.5 -132.5t-10 -165z" />
<glyph unicode="&#xf5;" horiz-adv-x="1153" d="M74 461q0 131 67.5 242.5t183.5 177t253 65.5t252.5 -65.5t182 -177t66.5 -242.5q0 -132 -66.5 -244t-182 -177t-252.5 -65t-253 65t-183.5 177t-67.5 244zM221 1028v16.5t4 40t10.5 57t22 60.5t37 56.5t56.5 40t79 16.5q46 0 90.5 -16t78.5 -38.5t66 -45t64.5 -38.5 t61.5 -16q25 0 45 16t30.5 38.5t17.5 45t9 38.5l2 16h35v-16.5t-4 -40.5t-10.5 -57.5t-22.5 -61.5t-37.5 -58t-57 -40.5t-79.5 -16.5q-56 0 -112 24.5t-93 53.5t-79.5 53.5t-74.5 24.5q-27 0 -47.5 -15.5t-30 -38t-16 -45t-7.5 -37.5l-1 -16h-37zM338 461q0 -95 10 -166 t35.5 -132t74.5 -93.5t120 -32.5t119.5 32.5t73.5 93.5t35.5 132.5t10.5 165.5q0 74 -6 133.5t-22 115t-42.5 93t-69 60t-99.5 22.5q-71 0 -120 -32.5t-74.5 -94t-35.5 -132.5t-10 -165z" />
<glyph unicode="&#xf6;" horiz-adv-x="1153" d="M74 461q0 131 67.5 242.5t183.5 177t253 65.5t252.5 -65.5t182 -177t66.5 -242.5q0 -132 -66.5 -244t-182 -177t-252.5 -65t-253 65t-183.5 177t-67.5 244zM266 1192q0 47 34 81t81 34t81 -34t34 -81q0 -46 -34 -81.5t-81 -35.5t-81 35.5t-34 81.5zM338 461 q0 -95 10 -166t35.5 -132t74.5 -93.5t120 -32.5t119.5 32.5t73.5 93.5t35.5 132.5t10.5 165.5q0 74 -6 133.5t-22 115t-42.5 93t-69 60t-99.5 22.5q-71 0 -120 -32.5t-74.5 -94t-35.5 -132.5t-10 -165zM657 1192q0 47 35.5 81t81.5 34q47 0 80 -34t33 -81q0 -46 -33 -81.5 t-80 -35.5q-46 0 -81.5 35.5t-35.5 81.5z" />
<glyph unicode="&#xf8;" horiz-adv-x="1153" d="M74 461q0 131 67.5 242.5t183.5 177t253 65.5q113 0 213 -49l75 129l62 -35l-74 -127q103 -66 164 -172.5t61 -230.5q0 -132 -66.5 -244t-182 -177t-252.5 -65q-113 0 -211 45l-80 -137l-60 35l76 135q-105 66 -167 173.5t-62 234.5zM338 461q0 -190 39 -283l362 631 q-60 76 -161 76q-71 0 -120 -32.5t-74.5 -94t-35.5 -132.5t-10 -165zM416 106q59 -69 162 -69q71 0 119.5 32.5t73.5 93.5t35.5 132.5t10.5 165.5q0 173 -37 274z" />
<glyph unicode="&#xf9;" horiz-adv-x="1179" d="M27 864v58l274 -7l78 7v-582q0 -122 41.5 -182t132.5 -60q98 1 160.5 83t62.5 198v473l-139 12v58l252 -7l110 7v-830l138 -12v-57l-336 -23l-21 207q-51 -107 -137.5 -169.5t-196.5 -62.5q-290 0 -290 308v573zM371 1421h247l115 -381h-37z" />
<glyph unicode="&#xfa;" horiz-adv-x="1179" d="M27 864v58l274 -7l78 7v-582q0 -122 41.5 -182t132.5 -60q98 1 160.5 83t62.5 198v473l-139 12v58l252 -7l110 7v-830l138 -12v-57l-336 -23l-21 207q-51 -107 -137.5 -169.5t-196.5 -62.5q-290 0 -290 308v573zM426 1040l117 381h245l-325 -381h-37z" />
<glyph unicode="&#xfb;" horiz-adv-x="1179" d="M27 864v58l274 -7l78 7v-582q0 -122 41.5 -182t132.5 -60q98 1 160.5 83t62.5 198v473l-139 12v58l252 -7l110 7v-830l138 -12v-57l-336 -23l-21 207q-51 -107 -137.5 -169.5t-196.5 -62.5q-290 0 -290 308v573zM279 1051l210 366h203l209 -366h-33l-278 235l-279 -235 h-32z" />
<glyph unicode="&#xfc;" horiz-adv-x="1179" d="M27 864v58l274 -7l78 7v-582q0 -122 41.5 -182t132.5 -60q98 1 160.5 83t62.5 198v473l-139 12v58l252 -7l110 7v-830l138 -12v-57l-336 -23l-21 207q-51 -107 -137.5 -169.5t-196.5 -62.5q-290 0 -290 308v573zM279 1192q0 47 33.5 81t80.5 34t81 -34t34 -81 q0 -46 -34 -81.5t-81 -35.5t-80.5 35.5t-33.5 81.5zM670 1192q0 47 35 81t81 34q47 0 80 -34t33 -81q0 -46 -33 -81.5t-80 -35.5q-46 0 -81 35.5t-35 81.5z" />
<glyph unicode="&#xfd;" horiz-adv-x="1036" d="M0 866v56l227 -7l248 7v-56l-135 -12l272 -612q30 72 129 310.5t125 299.5h-4l-207 14v56l228 -7l180 7v-56l-131 -12q-25 -59 -113.5 -270t-165 -391.5t-90.5 -212.5q-18 -41 -29.5 -65.5t-35.5 -69.5t-44.5 -74t-52.5 -65t-64 -57t-74.5 -35.5t-88.5 -14.5q-36 0 -64 7 t-43.5 16.5t-25.5 19.5t-13 17l-3 7v232h69l47 -166q2 -4 7 -10.5t26 -17.5t49 -11q37 0 71.5 18t61.5 45.5t56 72t49 84.5t47 97l-410 846zM446 1040l117 381h246l-326 -381h-37z" />
<glyph unicode="&#xfe;" horiz-adv-x="1198" d="M18 1427v56l273 -6l112 6v-701q108 164 293 164q187 0 306.5 -137t119.5 -348q0 -205 -121.5 -345.5t-312.5 -140.5q-176 0 -285 125v-407l185 -15v-57l-297 6l-248 -6v57l137 15v1720zM403 317q0 -120 62.5 -190t165.5 -70q104 0 165 97.5t62 296.5q0 411 -215 411 q-111 0 -174 -79t-66 -203v-263z" />
<glyph unicode="&#xff;" horiz-adv-x="1036" d="M0 866v56l227 -7l248 7v-56l-135 -12l272 -612q30 72 129 310.5t125 299.5h-4l-207 14v56l228 -7l180 7v-56l-131 -12q-25 -59 -113.5 -270t-165 -391.5t-90.5 -212.5q-18 -41 -29.5 -65.5t-35.5 -69.5t-44.5 -74t-52.5 -65t-64 -57t-74.5 -35.5t-88.5 -14.5q-36 0 -64 7 t-43.5 16.5t-25.5 19.5t-13 17l-3 7v232h69l47 -166q2 -4 7 -10.5t26 -17.5t49 -11q37 0 71.5 18t61.5 45.5t56 72t49 84.5t47 97l-410 846zM262 1229q0 47 34 80.5t81 33.5t81 -33.5t34 -80.5q0 -46 -34 -81.5t-81 -35.5t-81 35.5t-34 81.5zM653 1229q0 47 35.5 80.5 t81.5 33.5q47 0 80 -33.5t33 -80.5q0 -46 -33 -81.5t-80 -35.5q-46 0 -81.5 35.5t-35.5 81.5z" />
<glyph unicode="&#x152;" horiz-adv-x="2324" d="M74 756q0 160 58.5 305t157.5 250t236 167t287 62l494 -35l837 6l39 -383h-47l-156 326h-534v-645h301l65 238h54l-6 -279l6 -279h-54l-65 240h-301v-672h579l158 351h49l-43 -408l-882 6l-494 -35q-150 0 -287 62t-236 167t-157.5 250.5t-58.5 305.5zM395 756 q0 -153 24.5 -282.5t74 -230t131 -157.5t188.5 -57q243 0 354 288v877q-112 287 -354 287q-107 0 -188.5 -56.5t-131 -156.5t-74 -229t-24.5 -283z" />
<glyph unicode="&#x153;" horiz-adv-x="1759" d="M74 461q0 131 67.5 242.5t183.5 177t253 65.5q188 0 335 -127q140 127 342 127q93 0 166.5 -25.5t116.5 -66.5t73.5 -90.5t43 -99.5t18.5 -91t5 -67l-1 -25h-653v-12q0 -410 299 -410q65 0 122 18.5t91 44.5t59 52.5t35 45.5l10 18h56q-4 -11 -13 -28.5t-44.5 -63 t-80.5 -80t-123.5 -63t-170.5 -28.5q-210 0 -351 125q-148 -125 -335 -125q-137 0 -253 65t-183.5 177t-67.5 244zM338 461q0 -95 10 -166t35.5 -132t74.5 -93.5t120 -32.5q178 0 223 225q-39 85 -39 199q0 110 39 198q-46 226 -223 226q-71 0 -120 -32.5t-74.5 -94 t-35.5 -132.5t-10 -165zM1026 551h393q1 26 0 51.5t-5 67.5t-16 76.5t-30 67.5t-50 52t-73 19q-194 0 -219 -334z" />
<glyph unicode="&#x178;" horiz-adv-x="1454" d="M-29 1454v57l322 -6l342 6v-57l-182 -12l399 -709l381 709l-270 14v55l319 -6l227 6v-55l-174 -12l-434 -807v-567l205 -13v-57l-342 6l-346 -6v57l205 13v503l-490 869zM489 1726q0 47 34 81t81 34t81 -34t34 -81q0 -46 -34 -81t-81 -35t-81 35t-34 81zM881 1726 q0 47 35 81t81 34q47 0 80 -34t33 -81q0 -46 -33 -81t-80 -35q-46 0 -81 35t-35 81z" />
<glyph unicode="&#x2c6;" horiz-adv-x="694" d="M37 1051l211 366h203l208 -366h-32l-279 235l-278 -235h-33z" />
<glyph unicode="&#x2dc;" horiz-adv-x="694" d="M-8 1028v16.5t4 40t10.5 57t22 60.5t37 56.5t56.5 40t79 16.5q56 0 111 -24t91.5 -53t79.5 -53t78 -24q25 0 45 16t31 38.5t18 45t9 38.5l2 16h34v-16.5t-4 -40.5t-10.5 -57.5t-22.5 -61.5t-37.5 -58t-57 -40.5t-79.5 -16.5q-56 0 -112 24.5t-93 53.5t-79 53.5t-74 24.5 q-27 0 -47.5 -15.5t-30 -38t-16 -45t-7.5 -37.5l-1 -16h-37z" />
<glyph unicode="&#x2000;" horiz-adv-x="1005" />
<glyph unicode="&#x2001;" horiz-adv-x="2011" />
<glyph unicode="&#x2002;" horiz-adv-x="1005" />
<glyph unicode="&#x2003;" horiz-adv-x="2011" />
<glyph unicode="&#x2004;" horiz-adv-x="670" />
<glyph unicode="&#x2005;" horiz-adv-x="502" />
<glyph unicode="&#x2006;" horiz-adv-x="335" />
<glyph unicode="&#x2007;" horiz-adv-x="335" />
<glyph unicode="&#x2008;" horiz-adv-x="251" />
<glyph unicode="&#x2009;" horiz-adv-x="402" />
<glyph unicode="&#x200a;" horiz-adv-x="111" />
<glyph unicode="&#x2010;" horiz-adv-x="788" d="M182 424v184h424v-184h-424z" />
<glyph unicode="&#x2011;" horiz-adv-x="788" d="M182 424v184h424v-184h-424z" />
<glyph unicode="&#x2012;" horiz-adv-x="788" d="M182 424v184h424v-184h-424z" />
<glyph unicode="&#x2013;" horiz-adv-x="1212" d="M182 424v184h848v-184h-848z" />
<glyph unicode="&#x2014;" horiz-adv-x="1636" d="M182 424v184h1272v-184h-1272z" />
<glyph unicode="&#x2018;" horiz-adv-x="788" d="M215 1112q0 59 17.5 114.5t45 97t61 78t66.5 61.5t60.5 42.5t44.5 26.5l18 8l17 -43q-9 -6 -23.5 -16.5t-51.5 -42.5t-65.5 -63t-51.5 -73.5t-23 -78.5q0 -11 3 -15.5t11 -4t17 3t26 5t33 2.5q62 0 95.5 -40.5t33.5 -104.5q0 -61 -48 -104t-114 -43q-79 0 -125.5 50 t-46.5 140z" />
<glyph unicode="&#x2019;" horiz-adv-x="788" d="M240 1393q0 61 47.5 104t113.5 43q79 0 125.5 -50t46.5 -138q0 -59 -17.5 -115t-45 -97.5t-61 -78.5t-66.5 -61.5t-60.5 -42.5t-44.5 -27l-18 -8l-16 45q9 6 23.5 16.5t51.5 42.5t65.5 63t51.5 73.5t23 78.5q0 11 -3 15t-11 3t-17 -3.5t-25.5 -5.5t-33.5 -3 q-62 0 -95.5 41.5t-33.5 104.5z" />
<glyph unicode="&#x201a;" horiz-adv-x="788" d="M240 117q0 60 47.5 103.5t113.5 43.5q79 0 125.5 -50.5t46.5 -139.5q0 -59 -17.5 -114.5t-45 -97.5t-61 -78.5t-66.5 -61.5t-60.5 -43t-44.5 -27l-18 -8l-16 45q9 6 23.5 16.5t51.5 42.5t65.5 63t51.5 73.5t23 78.5q0 11 -3 15t-11 3.5t-17 -3t-26 -5t-33 -2.5 q-62 0 -95.5 41t-33.5 105z" />
<glyph unicode="&#x201c;" horiz-adv-x="1212" d="M215 1112q0 59 17.5 114.5t45 97t61 78t66.5 61.5t60.5 42.5t44.5 26.5l18 8l17 -43q-9 -6 -23.5 -16.5t-51.5 -42.5t-65.5 -63t-51.5 -73.5t-23 -78.5q0 -11 3 -15.5t11 -4t17 3t26 5t33 2.5q62 0 95.5 -40.5t33.5 -104.5q0 -61 -48 -104t-114 -43q-79 0 -125.5 50 t-46.5 140zM639 1112q0 59 17.5 114.5t45 97t61 78t66.5 61.5t60.5 42.5t44.5 26.5l18 8l17 -43q-9 -6 -23.5 -16.5t-51.5 -42.5t-65.5 -63t-51.5 -73.5t-23 -78.5q0 -11 3 -15.5t11 -4t17 3t26 5t33 2.5q62 0 95.5 -40.5t33.5 -104.5q0 -61 -48 -104t-114 -43 q-79 0 -125.5 50t-46.5 140z" />
<glyph unicode="&#x201d;" horiz-adv-x="1212" d="M240 1393q0 61 47.5 104t113.5 43q79 0 125.5 -50t46.5 -138q0 -59 -17.5 -115t-45 -97.5t-61 -78.5t-66.5 -61.5t-60.5 -42.5t-44.5 -27l-18 -8l-16 45q9 6 23.5 16.5t51.5 42.5t65.5 63t51.5 73.5t23 78.5q0 11 -3 15t-11 3t-17 -3.5t-25.5 -5.5t-33.5 -3 q-62 0 -95.5 41.5t-33.5 104.5zM664 1393q0 61 47.5 104t113.5 43q79 0 125.5 -50t46.5 -138q0 -59 -17.5 -115t-45 -97.5t-61 -78.5t-66.5 -61.5t-60.5 -42.5t-44.5 -27l-18 -8l-16 45q9 6 23.5 16.5t51.5 42.5t65.5 63t51.5 73.5t23 78.5q0 11 -3 15t-11 3t-17 -3.5 t-25.5 -5.5t-33.5 -3q-62 0 -95.5 41.5t-33.5 104.5z" />
<glyph unicode="&#x201e;" horiz-adv-x="1212" d="M240 117q0 60 47.5 103.5t113.5 43.5q79 0 125.5 -50.5t46.5 -139.5q0 -59 -17.5 -114.5t-45 -97.5t-61 -78.5t-66.5 -61.5t-60.5 -43t-44.5 -27l-18 -8l-16 45q9 6 23.5 16.5t51.5 42.5t65.5 63t51.5 73.5t23 78.5q0 11 -3 15t-11 3.5t-17 -3t-26 -5t-33 -2.5 q-62 0 -95.5 41t-33.5 105zM664 117q0 60 47.5 103.5t113.5 43.5q79 0 125.5 -50.5t46.5 -139.5q0 -59 -17.5 -114.5t-45 -97.5t-61 -78.5t-66.5 -61.5t-60.5 -43t-44.5 -27l-18 -8l-16 45q9 6 23.5 16.5t51.5 42.5t65.5 63t51.5 73.5t23 78.5q0 11 -3 15t-11 3.5t-17 -3 t-26 -5t-33 -2.5q-62 0 -95.5 41t-33.5 105z" />
<glyph unicode="&#x2022;" horiz-adv-x="948" d="M221 655q0 107 74 180.5t180 73.5t179 -73.5t73 -180.5q0 -106 -73 -180t-179 -74t-180 74t-74 180z" />
<glyph unicode="&#x202f;" horiz-adv-x="402" />
<glyph unicode="&#x205f;" horiz-adv-x="502" />
<glyph unicode="&#x20ac;" d="M-55 629l37 69h94q-2 18 -2 58q0 37 2 57h-131l37 70h100q24 180 108 321.5t222.5 224t308.5 82.5q58 0 113 -9.5t92.5 -22.5t66.5 -26t43 -23l13 -9v-377h-68l-51 238q-2 7 -5.5 18t-19 40t-37 51.5t-61 40.5t-88.5 18q-97 0 -167.5 -75.5t-107.5 -200t-47 -291.5h535 l-37 -70h-500v-57v-58h500l-37 -69h-461q26 -555 342 -555q53 0 100 19t80 48.5t61 66t45.5 73t29.5 66t17 48.5l5 19h51q-1 -9 -4.5 -23.5t-18 -57.5t-33.5 -82.5t-54.5 -87t-78.5 -82t-107.5 -58t-139.5 -23.5q-163 0 -295 83t-212 224.5t-103 321.5h-137z" />
<glyph unicode="&#x2122;" horiz-adv-x="2078" d="M74 1288l24 223l375 -2l377 2l24 -223h-30l-94 189h-193v-748l123 -4v-35h-207h-207v35l125 4v748h-194l-95 -189h-28zM924 690v33l123 4v746l-123 6v32l151 -2l172 2l234 -600l223 600l111 -2l190 2v-34l-107 -7v-741l107 -4v-35h-190h-193v35l109 4v698l-281 -737h-59 l-293 746v-709l139 -4v-33h-162h-151z" />
<glyph unicode="&#x25fc;" horiz-adv-x="921" d="M0 0v922h922v-922h-922z" />
</font>
</defs>
</svg>
